<svg width="626" height="627" viewBox="0 0 626 627" fill="none" xmlns="http://www.w3.org/2000/svg">
<path d="M302.77 618.053C300.15 617.972 298.108 617.282 296.643 615.983C295.179 614.684 294.481 612.937 294.549 610.74C294.617 608.543 295.422 606.842 296.963 605.636C298.505 604.43 300.586 603.868 303.207 603.949L308.207 604.104L308.396 597.976L311.287 598.066L310.661 618.297L302.77 618.053ZM303.216 606.466C301.385 606.409 299.976 606.752 298.989 607.493C298.001 608.253 297.485 609.365 297.439 610.829C297.394 612.294 297.841 613.426 298.781 614.227C299.72 615.047 301.104 615.485 302.935 615.541L307.848 615.693L308.129 606.618L303.216 606.466Z" fill="white"/>
<path d="M270.92 597.523L271.218 595.025L285.804 596.764L283.407 616.863L269.223 615.172L269.521 612.674L280.834 614.022L281.57 607.849L271.492 606.647L271.783 604.207L281.861 605.409L282.635 598.919L270.92 597.523Z" fill="white"/>
<path d="M244.37 607.956L251.171 609.342L254.71 591.974L257.487 592.539L253.947 609.908L260.719 611.288L260.217 613.753L243.868 610.421L244.37 607.956Z" fill="white"/>
<path d="M226.375 605.691C223.859 604.954 222.056 603.772 220.966 602.147C219.876 600.521 219.64 598.654 220.258 596.545C220.876 594.436 222.083 592.992 223.879 592.213C225.674 591.434 227.83 591.413 230.346 592.15L235.146 593.558L236.871 587.675L239.646 588.489L233.95 607.913L226.375 605.691ZM229.721 594.589C227.964 594.074 226.514 594.05 225.372 594.519C224.225 595.006 223.445 595.953 223.033 597.359C222.621 598.765 222.768 599.973 223.476 600.984C224.179 602.014 225.409 602.787 227.166 603.302L231.883 604.685L234.438 595.972L229.721 594.589Z" fill="white"/>
<path d="M206.942 577.286C208.838 578.048 210.381 579.145 211.572 580.579C212.754 582.03 213.489 583.666 213.777 585.485C214.046 587.296 213.818 589.105 213.093 590.912C212.367 592.719 211.28 594.183 209.832 595.305C208.367 596.42 206.708 597.084 204.857 597.296C202.999 597.526 201.122 597.26 199.226 596.498C197.347 595.744 195.817 594.641 194.634 593.19C193.444 591.756 192.714 590.133 192.445 588.322C192.168 586.528 192.396 584.719 193.129 582.894C193.862 581.069 194.952 579.596 196.4 578.474C197.841 577.37 199.49 576.703 201.348 576.473C203.199 576.261 205.064 576.532 206.942 577.286ZM205.983 579.674C204.606 579.121 203.246 578.938 201.903 579.126C200.542 579.307 199.33 579.817 198.265 580.657C197.176 581.507 196.358 582.612 195.812 583.972C195.266 585.331 195.096 586.686 195.302 588.036C195.482 589.396 196.002 590.612 196.859 591.684C197.699 592.748 198.807 593.557 200.185 594.11C201.562 594.664 202.94 594.853 204.319 594.68C205.679 594.499 206.904 593.984 207.994 593.133C209.058 592.294 209.863 591.194 210.409 589.835C210.955 588.475 211.138 587.115 210.957 585.754C210.752 584.405 210.22 583.194 209.362 582.122C208.487 581.044 207.36 580.228 205.983 579.674Z" fill="white"/>
<path d="M169.828 562.567L173.057 556.425L175.437 557.676L173.379 561.592L188.121 569.342L190.206 565.44L192.586 566.691L189.331 572.82L188.461 572.363C187.299 571.839 186.039 572.309 184.681 573.773C183.315 575.255 181.759 577.53 180.015 580.598L176.809 586.263L164.216 579.643L172.464 563.953L169.828 562.567ZM177.884 579.184C179.297 576.703 180.601 574.721 181.795 573.236C182.972 571.742 184.076 570.864 185.108 570.6L174.998 565.285L167.92 578.748L175.778 582.879L177.884 579.184Z" fill="white"/>
<path d="M151.845 572.409L149.46 570.826L158.096 557.817L139.486 564.204L137.27 562.733L148.465 545.87L150.826 547.437L142.206 560.422L160.824 554.074L163.04 555.546L151.845 572.409Z" fill="white"/>
<path d="M131.854 532.749C133.422 534.029 134.56 535.53 135.269 537.253C135.95 538.979 136.156 540.739 135.885 542.534C135.602 544.344 134.839 546.01 133.596 547.534C132.353 549.057 130.879 550.131 129.175 550.755C127.458 551.395 125.685 551.54 123.855 551.191C122.012 550.857 120.307 550.05 118.739 548.77C117.515 547.77 116.565 546.647 115.891 545.4C115.205 544.167 114.832 542.856 114.774 541.464L117.382 541.241C117.55 543.444 118.515 545.264 120.277 546.703C121.442 547.654 122.708 548.252 124.076 548.497C125.443 548.742 126.773 548.621 128.067 548.134C129.333 547.65 130.429 546.84 131.356 545.705C132.282 544.57 132.862 543.326 133.095 541.974C133.301 540.624 133.147 539.304 132.633 538.013C132.119 536.723 131.279 535.602 130.114 534.651C128.367 533.225 126.384 532.651 124.165 532.931L123.861 530.331C125.236 530.109 126.61 530.21 127.982 530.633C129.338 531.044 130.629 531.749 131.854 532.749Z" fill="white"/>
<path d="M107.233 522.875L110.246 525.831L116.484 519.474L118.506 521.459L104.33 535.907L102.307 533.922L108.464 527.648L105.409 524.65L94.7118 526.47L92.5033 524.303L104.529 522.369L106.432 509.611L108.785 511.92L107.233 522.875Z" fill="white"/>
<path d="M94.9389 496.168C96.2524 497.733 97.0963 499.428 97.4703 501.253C97.8296 503.091 97.7074 504.88 97.1038 506.619C96.4877 508.344 95.434 509.833 93.9425 511.084C92.4511 512.336 90.8025 513.115 88.9968 513.423C87.1787 513.715 85.4034 513.519 83.6708 512.834C81.9234 512.161 80.3929 511.042 79.0794 509.477C77.7782 507.926 76.948 506.232 76.5887 504.395C76.2146 502.569 76.3356 500.794 76.9516 499.069C77.5529 497.357 78.6067 495.869 80.1129 494.605C81.6191 493.341 83.275 492.555 85.0807 492.248C86.8717 491.953 88.6408 492.141 90.3882 492.814C92.1208 493.499 93.6377 494.617 94.9389 496.168ZM92.9675 497.822C92.0133 496.685 90.8998 495.883 89.6271 495.416C88.3419 494.934 87.0321 494.813 85.6976 495.052C84.3359 495.289 83.094 495.878 81.9717 496.82C80.8494 497.761 80.061 498.876 79.6063 500.164C79.1245 501.449 79.0093 502.766 79.2608 504.115C79.4999 505.45 80.0965 506.685 81.0507 507.823C82.0049 508.96 83.1308 509.776 84.4283 510.273C85.7135 510.755 87.0369 510.877 88.3986 510.641C89.7331 510.402 90.9614 509.811 92.0837 508.869C93.206 507.927 94.008 506.814 94.4898 505.529C94.9445 504.241 95.0461 502.923 94.7946 501.574C94.5307 500.21 93.9217 498.959 92.9675 497.822Z" fill="white"/>
<path d="M59.5976 478.853L63.5553 484.554L78.116 474.445L79.7321 476.773L65.1714 486.882L69.1126 492.559L67.0461 493.993L57.5311 480.288L59.5976 478.853Z" fill="white"/>
<path d="M60.1031 450.046L62.2807 448.786L69.6366 461.501L52.1159 471.637L44.9628 459.273L47.1403 458.013L52.8455 467.875L58.2268 464.761L53.1443 455.976L55.2718 454.745L60.3544 463.531L66.011 460.258L60.1031 450.046Z" fill="white"/>
<path d="M46.7293 437.452L48.515 441.278L56.5853 437.511L57.7839 440.079L39.4423 448.64L38.2437 446.072L46.2092 442.354L44.399 438.476L33.7428 436.43L32.4341 433.626L44.3743 436.031L50.6289 424.75L52.0232 427.737L46.7293 437.452Z" fill="white"/>
<path d="M38.2316 406.091L41.8554 416.219L47.37 416.61L48.3734 419.415L26.2271 417.603L25.2628 414.908L41.2232 399.431L42.2461 402.29L38.2316 406.091ZM36.3945 407.823L28.5269 415.275L39.3364 416.045L36.3945 407.823Z" fill="white"/>
<path d="M38.8728 390.351C39.0187 390.871 38.9675 391.366 38.7191 391.836C38.4521 392.312 38.0403 392.628 37.4835 392.784C36.9452 392.935 36.4477 392.874 35.9908 392.602C35.5154 392.335 35.2047 391.942 35.0588 391.422C34.9129 390.903 34.9667 390.417 35.2203 389.965C35.4739 389.514 35.8791 389.21 36.4359 389.053C36.9927 388.897 37.5088 388.952 37.9842 389.219C38.4359 389.473 38.7321 389.85 38.8728 390.351Z" fill="white"/>
<path d="M14.1613 375.228C13.6212 372.662 13.8093 370.515 14.7257 368.785C15.6421 367.056 17.1755 365.965 19.326 365.512C21.4765 365.059 23.3197 365.439 24.8557 366.653C26.3916 367.866 27.4296 369.755 27.9697 372.321L29.0003 377.216L34.9991 375.953L35.5948 378.783L15.7876 382.953L14.1613 375.228ZM25.5258 372.924C25.1486 371.132 24.4834 369.844 23.5302 369.059C22.5582 368.279 21.3554 368.04 19.9217 368.341C18.4881 368.643 17.4932 369.345 16.9373 370.447C16.3624 371.553 16.2636 373.002 16.6409 374.794L17.6536 379.605L26.5386 377.734L25.5258 372.924Z" fill="white"/>
<path d="M8.78181 339.646L26.4089 346.613C27.8137 347.165 28.8983 347.881 29.6626 348.761C30.4269 349.641 30.876 350.646 31.0099 351.775C31.1142 352.656 31.0199 353.58 30.7267 354.546L28.341 354.072C28.506 353.334 28.5555 352.687 28.4897 352.132C28.34 350.869 27.5463 349.905 26.1087 349.24L25.3364 348.866L11.0482 358.771L10.6841 355.698L22.6612 347.669L9.1187 342.489L8.78181 339.646Z" fill="white"/>
<path d="M22.687 313.624C22.6881 314.357 22.4385 314.984 21.9381 315.505C21.4376 316.007 20.8019 316.258 20.0308 316.26C19.2982 316.261 18.6809 316.002 18.1789 315.482C17.6576 314.962 17.3964 314.346 17.3953 313.632C17.3942 312.919 17.6535 312.311 18.1732 311.809C18.6736 311.288 19.2901 311.027 20.0226 311.026C20.7937 311.025 21.4303 311.284 21.9323 311.804C22.4343 312.304 22.6859 312.911 22.687 313.624Z" fill="white"/>
<path d="M20.0925 273.804C20.5773 272.482 21.2813 271.526 22.2045 270.936C23.1108 270.324 24.2149 270.094 25.5169 270.247C27.2592 270.451 28.5339 271.251 29.3409 272.646C30.1502 274.021 30.4124 275.925 30.1274 278.357L29.0506 287.547L8.94671 285.191L9.95964 276.547C10.2176 274.345 10.8684 272.684 11.9118 271.564C12.9384 270.423 14.2846 269.95 15.9503 270.145C17.0417 270.273 17.9377 270.659 18.6385 271.304C19.3416 271.93 19.8262 272.763 20.0925 273.804ZM18.1256 283.385L18.7818 277.784C18.9456 276.387 18.7924 275.291 18.3224 274.499C17.8547 273.687 17.0847 273.218 16.0125 273.093C14.9403 272.967 14.0828 273.245 13.4401 273.927C12.7782 274.606 12.3665 275.635 12.2049 277.014L11.5487 282.614L18.1256 283.385ZM27.8518 278.148C28.213 275.066 27.2448 273.39 24.9473 273.121C23.7985 272.986 22.91 273.28 22.2819 274.002C21.637 274.703 21.2247 275.819 21.0452 277.351L20.3083 283.64L27.1149 284.438L27.8518 278.148Z" fill="white"/>
<path d="M34.7672 252.455C34.3457 254.435 33.5307 256.134 32.3222 257.552C31.0988 258.947 29.6272 259.934 27.9072 260.514C26.1685 261.09 24.3375 261.173 22.4143 260.764C20.4911 260.354 18.8622 259.535 17.5276 258.304C16.1742 257.07 15.2344 255.559 14.7083 253.772C14.1633 251.981 14.1015 250.095 14.523 248.115C14.8522 246.569 15.4172 245.211 16.2181 244.042C17.0002 242.868 17.9966 241.937 19.2075 241.249L20.5979 243.466C18.7158 244.623 17.5379 246.313 17.0642 248.538C16.7511 250.009 16.7981 251.408 17.2051 252.737C17.6122 254.065 18.3279 255.193 19.3524 256.121C20.3621 257.026 21.5834 257.63 23.0164 257.936C24.4494 258.241 25.8206 258.188 27.1301 257.777C28.4248 257.343 29.5285 256.602 30.4413 255.555C31.3541 254.507 31.9671 253.248 32.2802 251.778C32.7499 249.572 32.3533 247.546 31.0907 245.7L33.2638 244.241C34.0893 245.363 34.6275 246.631 34.8785 248.044C35.1335 249.438 35.0964 250.909 34.7672 252.455Z" fill="white"/>
<path d="M40.6368 220.641L43.0407 221.383L38.7094 235.42L19.3679 229.451L23.5799 215.802L25.9837 216.543L22.6244 227.43L28.565 229.263L31.5577 219.565L33.9063 220.289L30.9136 229.988L37.1582 231.915L40.6368 220.641Z" fill="white"/>
<path d="M34.8955 193.266L31.018 202.927L47.4788 209.502L46.4125 212.159L27.6277 204.619L32.5716 192.302L34.8955 193.266Z" fill="white"/>
<path d="M61.61 173.166L67.7935 176.316L66.5727 178.712L62.6307 176.704L55.0693 191.544L58.9982 193.579L57.7773 195.975L51.6069 192.798L52.0532 191.922C52.5621 190.754 52.0759 189.5 50.5945 188.161C49.096 186.813 46.8013 185.287 43.7106 183.583L38.0054 180.449L44.4641 167.772L60.2579 175.819L61.61 173.166ZM45.0977 181.434C47.596 182.815 49.5951 184.093 51.095 185.268C52.6036 186.426 53.4962 187.519 53.7729 188.547L58.9582 178.37L45.406 171.465L41.3759 179.375L45.0977 181.434Z" fill="white"/>
<path d="M71.4199 152.484L65.6177 161.542L68.6778 166.146L67.0712 168.654L54.9713 150.017L56.5155 147.607L78.5197 150.782L76.882 153.339L71.4199 152.484ZM68.9261 152.088L58.2192 150.415L64.2157 159.442L68.9261 152.088Z" fill="white"/>
<path d="M88.1692 106.471L103.456 119.738L101.599 121.878L88.2118 110.26L80.5168 119.126L93.9039 130.745L92.0275 132.907L76.7404 119.64L88.1692 106.471Z" fill="white"/>
<path d="M102.969 91.6112C104.867 89.8029 106.793 88.8339 108.746 88.7041C110.699 88.5743 112.433 89.305 113.949 90.8963C115.465 92.4875 116.111 94.2554 115.886 96.1998C115.662 98.1441 114.6 100.02 112.702 101.829L109.08 105.279L113.308 109.718L111.214 111.712L97.2531 97.056L102.969 91.6112ZM110.904 100.067C112.23 98.8039 112.976 97.5607 113.142 96.3376C113.295 95.1005 112.866 93.9515 111.855 92.8907C110.845 91.8299 109.725 91.3527 108.495 91.4591C107.252 91.5517 105.967 92.2295 104.641 93.4926L101.082 96.8831L107.344 103.458L110.904 100.067Z" fill="white"/>
<path d="M137.198 82.3454L128.753 89.0082L130.139 94.3601L127.801 96.2049L122.46 74.6362L124.707 72.863L144.464 83.0584L142.08 84.939L137.198 82.3454ZM134.97 81.1562L125.399 76.0741L128.114 86.5652L134.97 81.1562Z" fill="white"/>
<path d="M154.354 63.7235C155.609 63.3185 156.772 63.2841 157.844 63.6205C158.905 63.9408 159.762 64.6013 160.415 65.6021C161.069 66.6029 161.32 67.6934 161.17 68.8736C161.025 70.0271 160.552 71.1535 159.75 72.2526C158.954 73.325 157.934 74.267 156.691 75.0786C155.562 75.8163 154.329 76.3793 152.994 76.7676C151.659 77.1558 150.31 77.3113 148.947 77.2341L148.625 74.8891C149.747 74.9854 150.863 74.8784 151.972 74.5682C153.082 74.258 154.105 73.7973 155.041 73.186C156.397 72.3007 157.351 71.2752 157.902 70.1095C158.443 68.9277 158.386 67.8364 157.733 66.8356C157.174 65.9801 156.4 65.553 155.411 65.5542C154.411 65.5393 153.282 65.9429 152.023 66.765L148.246 69.2312L146.965 67.27L150.573 64.9145C151.654 64.2083 152.351 63.4424 152.664 62.6166C152.982 61.7641 152.883 60.9424 152.367 60.1515C151.787 59.2637 150.933 58.8198 149.805 58.8197C148.677 58.8196 147.508 59.2148 146.297 60.0052C145.506 60.5217 144.773 61.1616 144.097 61.9251C143.438 62.6781 142.892 63.5176 142.461 64.4439L140.39 62.9644C140.929 61.9215 141.596 60.9682 142.39 60.1042C143.184 59.2403 144.058 58.4974 145.01 57.8756C146.204 57.0957 147.423 56.5646 148.666 56.2824C149.91 56.0002 151.054 56.0245 152.098 56.3553C153.159 56.6756 154.001 57.3119 154.623 58.2643C155.181 59.1198 155.429 60.0284 155.367 60.9903C155.32 61.9416 154.982 62.8526 154.354 63.7235Z" fill="white"/>
<path d="M187.721 54.1209L190.97 60.2537L188.593 61.5124L186.523 57.6028L171.804 65.3989L173.849 69.322L171.473 70.5808L168.25 64.4345L169.119 63.9743C170.207 63.3106 170.53 62.0052 170.088 60.0581C169.636 58.0939 168.636 55.526 167.087 52.3543L164.221 46.5102L176.793 39.851L185.09 55.515L187.721 54.1209ZM169.457 51.3933C170.708 53.9596 171.609 56.1547 172.16 57.9786C172.729 59.7934 172.831 61.201 172.466 62.2013L182.56 56.855L175.44 43.4141L167.596 47.5693L169.457 51.3933Z" fill="white"/>
<path d="M205.847 27.1791L213.483 45.925L210.805 47.0158L207.401 38.6605L196.636 43.0458L200.039 51.4011L197.361 52.4919L189.725 33.7461L192.403 32.6552L195.687 40.7159L206.452 36.3307L203.169 28.27L205.847 27.1791Z" fill="white"/>
<path d="M218.332 22.7908L221.08 21.9866L225.466 36.9727L232.569 18.6238L235.122 17.8764L240.808 37.3028L238.089 38.0988L233.71 23.1406L226.572 41.4698L224.018 42.2171L218.332 22.7908Z" fill="white"/>
<path d="M257.882 24.4451L253.735 25.2343L255.4 33.9835L252.616 34.5132L248.832 14.6286L251.616 14.0989L253.259 22.7345L257.464 21.9345L262.07 12.1097L265.109 11.5313L259.84 22.5125L269.234 31.3511L265.996 31.9673L257.882 24.4451Z" fill="white"/>
<path d="M292.041 23.5798C291.31 23.6322 290.667 23.4271 290.112 22.9644C289.576 22.5003 289.281 21.8837 289.226 21.1146C289.173 20.384 289.389 19.75 289.872 19.2128C290.354 18.6564 290.95 18.3527 291.662 18.3017C292.373 18.2506 292.998 18.4667 293.535 18.95C294.09 19.4127 294.394 20.0094 294.446 20.74C294.501 21.5091 294.287 22.1623 293.804 22.6995C293.34 23.2353 292.752 23.5287 292.041 23.5798Z" fill="white"/>
<path d="M327.299 8.2452C329.918 8.36254 331.95 9.08075 333.396 10.3998C334.842 11.7189 335.516 13.4762 335.418 15.6716C335.32 17.867 334.491 19.557 332.933 20.7415C331.375 21.926 329.286 22.4595 326.667 22.3422L321.669 22.1183L321.395 28.2424L318.506 28.113L319.412 7.89189L327.299 8.2452ZM326.693 19.8251C328.522 19.9071 329.936 19.5845 330.933 18.8573C331.932 18.1108 332.464 17.0058 332.529 15.5422C332.595 14.0786 332.163 12.94 331.235 12.1266C330.307 11.2938 328.929 10.8365 327.099 10.7545L322.188 10.5345L321.782 19.6051L326.693 19.8251Z" fill="white"/>
<path d="M358.862 29.215L358.53 31.7086L343.969 29.7676L346.644 9.70372L360.803 11.5912L360.471 14.0849L349.178 12.5795L348.356 18.742L358.417 20.0831L358.092 22.5194L348.032 21.1783L347.168 27.6561L358.862 29.215Z" fill="white"/>
<path d="M385.55 19.1505L378.77 17.6706L374.99 34.9885L372.221 34.3842L376.001 17.0663L369.249 15.5925L369.786 13.1347L386.086 16.6927L385.55 19.1505Z" fill="white"/>
<path d="M403.519 21.6667C406.024 22.4392 407.811 23.6456 408.878 25.2861C409.946 26.9265 410.156 28.7968 409.509 30.8969C408.861 32.9969 407.634 34.4242 405.828 35.1786C404.022 35.933 401.867 35.924 399.361 35.1515L394.581 33.6776L392.775 39.5358L390.011 38.6838L395.975 19.3409L403.519 21.6667ZM400.02 32.7219C401.77 33.2615 403.219 33.3048 404.367 32.8519C405.521 32.3806 406.314 31.445 406.745 30.0449C407.177 28.6448 407.046 27.4344 406.352 26.4135C405.664 25.3742 404.445 24.5848 402.695 24.0452L397.997 22.5969L395.322 31.2736L400.02 32.7219Z" fill="white"/>
<path d="M422.556 50.337C420.67 49.5492 419.143 48.4303 417.973 46.9804C416.81 45.5127 416.098 43.8675 415.835 42.0448C415.591 40.2295 415.844 38.4235 416.595 36.627C417.345 34.8305 418.452 33.3813 419.916 32.2795C421.397 31.1851 423.064 30.5447 424.918 30.3581C426.779 30.1539 428.652 30.4456 430.538 31.2334C432.405 32.0137 433.921 33.1378 435.083 34.6055C436.253 36.0554 436.96 37.688 437.205 39.5033C437.457 41.3008 437.204 43.1067 436.445 44.921C435.687 46.7353 434.577 48.1934 433.114 49.2952C431.658 50.3793 429.999 51.0235 428.138 51.2278C426.284 51.4143 424.424 51.1173 422.556 50.337ZM423.548 47.9624C424.918 48.5346 426.275 48.7362 427.62 48.5669C428.983 48.4052 430.203 47.9118 431.278 47.0869C432.38 46.2516 433.213 45.1581 433.777 43.8063C434.342 42.4544 434.531 41.1022 434.344 39.7496C434.182 38.3867 433.68 37.1636 432.837 36.0802C432.013 35.0043 430.915 34.1802 429.546 33.608C428.176 33.0357 426.801 32.8268 425.42 32.9811C424.057 33.1429 422.825 33.6414 421.724 34.4767C420.648 35.3016 419.828 36.39 419.263 37.7418C418.698 39.0937 418.497 40.451 418.658 41.814C418.845 43.1665 419.36 44.3845 420.203 45.4678C421.063 46.5586 422.178 47.3901 423.548 47.9624Z" fill="white"/>
<path d="M459.461 65.5692L456.147 71.6666L453.784 70.3824L455.897 66.4953L441.263 58.5415L439.125 62.4149L436.762 61.1306L440.101 55.047L440.965 55.5165C442.12 56.0563 443.386 55.6036 444.764 54.1584C446.151 52.6963 447.738 50.4431 449.524 47.3988L452.809 41.779L465.309 48.5729L456.844 64.1469L459.461 65.5692ZM451.635 48.8426C450.188 51.3033 448.857 53.2677 447.643 54.7357C446.445 56.2129 445.328 57.0762 444.293 57.3254L454.329 62.7798L461.592 49.4162L453.792 45.1769L451.635 48.8426Z" fill="white"/>
<path d="M477.585 55.9794L479.948 57.5956L471.132 70.4837L489.829 64.3545L492.025 65.8564L480.597 82.5632L478.258 80.9633L487.057 68.0991L468.353 74.1881L466.157 72.6862L477.585 55.9794Z" fill="white"/>
<path d="M497.017 95.91C495.467 94.6084 494.349 93.0913 493.665 91.3585C493.007 89.6234 492.826 87.8604 493.121 86.0695C493.429 84.2639 494.215 82.6081 495.48 81.1022C496.744 79.5963 498.233 78.5429 499.945 77.942C501.67 77.3264 503.446 77.2058 505.271 77.5803C507.108 77.9401 508.802 78.7707 510.352 80.0722C511.563 81.0887 512.497 82.2251 513.153 83.4814C513.823 84.7229 514.177 86.0398 514.216 87.432L511.605 87.6186C511.468 85.4139 510.528 83.5803 508.786 82.1176C507.634 81.1507 506.377 80.5352 505.013 80.271C503.649 80.0068 502.317 80.1093 501.017 80.5784C499.744 81.0451 498.636 81.8395 497.694 82.9616C496.752 84.0836 496.155 85.3193 495.903 86.6685C495.679 88.0153 495.815 89.3375 496.311 90.6352C496.807 91.9329 497.631 93.0651 498.783 94.032C500.51 95.4823 502.485 96.0832 504.707 95.8347L504.975 98.4384C503.597 98.6407 502.225 98.5208 500.86 98.0789C499.509 97.6494 498.228 96.9264 497.017 95.91Z" fill="white"/>
<path d="M521.508 106.124L518.536 103.126L512.211 109.396L510.216 107.384L524.591 93.1332L526.586 95.1457L520.343 101.334L523.356 104.374L534.078 102.703L536.256 104.9L524.205 106.668L522.125 119.397L519.804 117.056L521.508 106.124Z" fill="white"/>
<path d="M533.427 132.997C532.135 131.414 531.315 129.707 530.966 127.877C530.632 126.035 530.779 124.248 531.407 122.517C532.047 120.8 533.121 119.327 534.629 118.096C536.138 116.865 537.797 116.109 539.607 115.826C541.429 115.559 543.202 115.78 544.924 116.489C546.662 117.186 548.177 118.326 549.469 119.909C550.749 121.478 551.555 123.183 551.889 125.025C552.238 126.856 552.092 128.629 551.452 130.345C550.827 132.049 549.753 133.523 548.23 134.766C546.706 136.009 545.039 136.771 543.229 137.054C541.435 137.324 539.668 137.111 537.93 136.414C536.207 135.705 534.706 134.566 533.427 132.997ZM535.421 131.371C536.359 132.521 537.461 133.338 538.727 133.823C540.006 134.322 541.314 134.462 542.652 134.241C544.016 134.023 545.266 133.451 546.402 132.525C547.537 131.599 548.341 130.495 548.813 129.214C549.313 127.936 549.446 126.62 549.213 125.268C548.993 123.93 548.413 122.686 547.475 121.536C546.536 120.386 545.422 119.554 544.131 119.039C542.853 118.54 541.532 118.399 540.167 118.617C538.829 118.837 537.593 119.41 536.457 120.337C535.322 121.263 534.505 122.365 534.005 123.643C533.533 124.925 533.413 126.241 533.646 127.594C533.891 128.962 534.482 130.22 535.421 131.371Z" fill="white"/>
<path d="M568.522 150.8L564.644 145.045L549.945 154.951L548.361 152.601L563.06 142.695L559.198 136.964L561.284 135.558L570.608 149.394L568.522 150.8Z" fill="white"/>
<path d="M567.614 179.597L565.419 180.827L558.24 168.011L575.9 158.119L582.881 170.581L580.686 171.811L575.118 161.871L569.694 164.909L574.654 173.764L572.51 174.966L567.55 166.111L561.848 169.304L567.614 179.597Z" fill="white"/>
<path d="M580.813 192.375L579.08 188.525L570.959 192.18L569.796 189.596L588.254 181.289L589.417 183.874L581.401 187.481L583.157 191.384L593.784 193.577L595.054 196.399L583.148 193.829L576.738 205.022L575.385 202.016L580.813 192.375Z" fill="white"/>
<path d="M588.881 223.85L585.398 213.672L579.89 213.204L578.925 210.386L601.044 212.505L601.971 215.213L585.798 230.467L584.815 227.595L588.881 223.85ZM590.742 222.143L598.712 214.8L587.915 213.881L590.742 222.143Z" fill="white"/>
<path d="M588.024 239.582C587.886 239.06 587.944 238.566 588.199 238.099C588.472 237.628 588.888 237.317 589.447 237.169C589.988 237.025 590.484 237.093 590.937 237.371C591.409 237.645 591.714 238.042 591.853 238.564C591.992 239.085 591.931 239.57 591.671 240.018C591.411 240.466 591.002 240.765 590.443 240.913C589.884 241.062 589.369 241 588.897 240.726C588.449 240.466 588.158 240.085 588.024 239.582Z" fill="white"/>
<path d="M612.515 255.044C613.02 257.617 612.802 259.761 611.861 261.478C610.921 263.195 609.373 264.265 607.216 264.688C605.06 265.11 603.222 264.705 601.703 263.47C600.184 262.236 599.172 260.332 598.668 257.76L597.705 252.851L591.689 254.03L591.133 251.193L610.996 247.297L612.515 255.044ZM601.12 257.19C601.472 258.987 602.119 260.285 603.062 261.082C604.023 261.876 605.222 262.132 606.66 261.85C608.097 261.568 609.102 260.88 609.673 259.786C610.263 258.688 610.382 257.24 610.03 255.443L609.084 250.619L600.174 252.366L601.12 257.19Z" fill="white"/>
<path d="M617.402 290.695L599.873 283.484C598.476 282.913 597.401 282.182 596.649 281.292C595.897 280.401 595.462 279.39 595.344 278.259C595.252 277.377 595.359 276.455 595.665 275.492L598.044 276C597.869 276.735 597.811 277.381 597.869 277.937C598.001 279.202 598.781 280.177 600.209 280.861L600.977 281.246L615.401 271.541L615.722 274.618L603.635 282.481L617.104 287.847L617.402 290.695Z" fill="white"/>
<path d="M603.136 316.528C603.145 315.795 603.403 315.172 603.911 314.658C604.418 314.163 605.057 313.92 605.828 313.929C606.561 313.938 607.174 314.206 607.669 314.733C608.183 315.26 608.436 315.88 608.427 316.593C608.418 317.306 608.151 317.91 607.624 318.405C607.116 318.919 606.496 319.172 605.764 319.163C604.993 319.153 604.36 318.885 603.865 318.359C603.37 317.851 603.127 317.241 603.136 316.528Z" fill="white"/>
<path d="M605.181 356.377C604.678 357.692 603.961 358.638 603.029 359.215C602.115 359.815 601.007 360.029 599.708 359.858C597.968 359.63 596.705 358.813 595.917 357.407C595.127 356.02 594.891 354.113 595.21 351.685L596.414 342.511L616.483 345.145L615.351 353.775C615.062 355.973 614.388 357.624 613.33 358.73C612.287 359.857 610.935 360.311 609.272 360.093C608.182 359.95 607.292 359.551 606.6 358.896C605.906 358.261 605.433 357.421 605.181 356.377ZM607.28 346.824L606.546 352.415C606.363 353.81 606.501 354.907 606.96 355.707C607.417 356.525 608.18 357.004 609.25 357.145C610.321 357.285 611.182 357.019 611.834 356.346C612.505 355.676 612.931 354.653 613.112 353.277L613.846 347.686L607.28 346.824ZM597.482 351.925C597.078 355.003 598.023 356.692 600.317 356.993C601.464 357.143 602.356 356.862 602.994 356.148C603.649 355.457 604.077 354.346 604.277 352.817L605.101 346.538L598.306 345.647L597.482 351.925Z" fill="white"/>
<path d="M590.219 377.52C590.668 375.546 591.506 373.859 592.734 372.457C593.977 371.079 595.462 370.112 597.19 369.556C598.936 369.004 600.768 368.947 602.686 369.383C604.603 369.819 606.22 370.661 607.538 371.91C608.874 373.162 609.793 374.686 610.294 376.48C610.814 378.279 610.85 380.165 610.401 382.139C610.05 383.681 609.466 385.031 608.649 386.189C607.851 387.352 606.842 388.269 605.622 388.94L604.262 386.704C606.16 385.574 607.361 383.899 607.866 381.681C608.199 380.215 608.172 378.815 607.783 377.481C607.394 376.147 606.694 375.009 605.683 374.068C604.686 373.149 603.473 372.527 602.044 372.202C600.616 371.877 599.244 371.911 597.929 372.304C596.628 372.72 595.514 373.446 594.587 374.48C593.66 375.515 593.03 376.765 592.696 378.231C592.196 380.431 592.564 382.462 593.801 384.325L591.608 385.753C590.798 384.62 590.278 383.345 590.046 381.929C589.811 380.531 589.868 379.061 590.219 377.52Z" fill="white"/>
<path d="M583.902 409.252L581.509 408.476L586.034 394.501L605.291 400.737L600.89 414.327L598.497 413.552L602.007 402.713L596.092 400.798L592.965 410.454L590.627 409.697L593.754 400.041L587.536 398.027L583.902 409.252Z" fill="white"/>
<path d="M589.26 436.7L593.271 427.094L576.903 420.291L578.006 417.65L596.685 425.449L591.571 437.696L589.26 436.7Z" fill="white"/>
<path d="M562.269 456.433L556.13 453.197L557.384 450.818L561.298 452.881L569.064 438.146L565.163 436.058L566.417 433.679L572.543 436.94L572.085 437.81C571.56 438.972 572.029 440.232 573.491 441.591C574.971 442.96 577.244 444.518 580.311 446.265L585.972 449.477L579.339 462.063L563.658 453.798L562.269 456.433ZM578.894 448.394C576.415 446.979 574.434 445.673 572.951 444.477C571.458 443.298 570.581 442.193 570.319 441.161L564.993 451.266L578.448 458.358L582.587 450.504L578.894 448.394Z" fill="white"/>
<path d="M552.182 476.973L558.109 467.996L555.113 463.35L556.754 460.864L568.595 479.667L567.018 482.056L545.059 478.576L546.732 476.043L552.182 476.973ZM554.67 477.403L565.353 479.224L559.482 470.116L554.67 477.403Z" fill="white"/>
<path d="M534.796 522.754L519.694 509.276L521.581 507.162L534.806 518.964L542.623 510.205L529.398 498.402L531.304 496.267L546.406 509.744L534.796 522.754Z" fill="white"/>
<path d="M519.787 537.405C517.864 539.187 515.925 540.129 513.971 540.232C512.016 540.335 510.292 539.58 508.798 537.968C507.305 536.356 506.684 534.579 506.935 532.638C507.186 530.697 508.274 528.836 510.197 527.054L513.867 523.654L509.7 519.157L511.821 517.192L525.578 532.04L519.787 537.405ZM511.97 528.84C510.627 530.085 509.864 531.318 509.681 532.539C509.511 533.773 509.924 534.928 510.919 536.003C511.915 537.078 513.029 537.57 514.26 537.481C515.504 537.406 516.798 536.746 518.141 535.501L521.747 532.16L515.576 525.5L511.97 528.84Z" fill="white"/>
<path d="M485.433 546.194L493.97 539.649L492.658 534.279L495.021 532.466L500.063 554.107L497.791 555.849L478.178 545.381L480.587 543.533L485.433 546.194ZM487.644 547.414L497.144 552.628L494.574 542.101L487.644 547.414Z" fill="white"/>
<path d="M468.026 564.578C466.766 564.965 465.602 564.983 464.535 564.632C463.479 564.297 462.631 563.625 461.991 562.615C461.352 561.605 461.115 560.512 461.282 559.334C461.443 558.182 461.931 557.062 462.748 555.975C463.56 554.913 464.592 553.985 465.846 553.191C466.986 552.469 468.226 551.923 469.567 551.554C470.907 551.184 472.258 551.047 473.619 551.143L473.909 553.492C472.789 553.381 471.672 553.472 470.558 553.767C469.444 554.062 468.414 554.508 467.47 555.106C466.102 555.973 465.134 556.985 464.567 558.143C464.01 559.317 464.051 560.409 464.691 561.419C465.237 562.282 466.005 562.72 466.994 562.732C467.994 562.761 469.129 562.373 470.399 561.569L474.21 559.155L475.463 561.134L471.823 563.439C470.732 564.13 470.024 564.886 469.7 565.708C469.37 566.556 469.458 567.379 469.963 568.177C470.531 569.072 471.378 569.528 472.506 569.544C473.635 569.56 474.809 569.181 476.031 568.407C476.829 567.902 477.571 567.272 478.257 566.518C478.927 565.774 479.484 564.942 479.928 564.022L481.978 565.53C481.425 566.565 480.745 567.509 479.939 568.362C479.132 569.215 478.249 569.946 477.288 570.554C476.083 571.318 474.857 571.832 473.61 572.097C472.363 572.362 471.219 572.321 470.179 571.976C469.123 571.641 468.29 570.993 467.682 570.033C467.135 569.169 466.9 568.257 466.976 567.296C467.035 566.346 467.386 565.44 468.026 564.578Z" fill="white"/>
<path d="M434.531 573.718L431.368 567.541L433.761 566.315L435.778 570.253L450.603 562.661L448.612 558.71L451.006 557.484L454.143 563.675L453.268 564.123C452.171 564.771 451.83 566.072 452.245 568.025C452.669 569.996 453.634 572.577 455.139 575.77L457.924 581.653L445.261 588.138L437.182 572.36L434.531 573.718ZM452.755 576.698C451.541 574.115 450.67 571.907 450.144 570.076C449.601 568.253 449.518 566.845 449.896 565.849L439.73 571.055L446.662 584.594L454.564 580.547L452.755 576.698Z" fill="white"/>
<path d="M416.033 600.407L408.658 581.557L411.351 580.503L414.638 588.905L425.463 584.669L422.176 576.268L424.869 575.214L432.244 594.064L429.551 595.118L426.38 587.012L415.555 591.248L418.726 599.353L416.033 600.407Z" fill="white"/>
<path d="M403.486 604.62L400.727 605.386L396.549 590.341L389.192 608.59L386.629 609.301L381.213 589.798L383.943 589.04L388.114 604.057L395.506 585.829L398.069 585.117L403.486 604.62Z" fill="white"/>
<path d="M363.962 602.42L368.12 601.689L366.577 592.917L369.367 592.426L372.875 612.361L370.085 612.852L368.561 604.195L364.346 604.937L359.604 614.697L356.557 615.233L361.978 604.326L352.707 595.358L355.954 594.787L363.962 602.42Z" fill="white"/>
<path d="M329.793 602.809C330.524 602.767 331.164 602.981 331.713 603.451C332.242 603.923 332.529 604.543 332.573 605.313C332.616 606.044 332.391 606.675 331.901 607.206C331.411 607.755 330.81 608.051 330.098 608.092C329.386 608.133 328.765 607.908 328.235 607.418C327.686 606.947 327.391 606.347 327.348 605.615C327.304 604.845 327.527 604.195 328.017 603.665C328.489 603.136 329.081 602.85 329.793 602.809Z" fill="white"/>
</svg>
