<svg width="92" height="113" viewBox="0 0 92 113" fill="none" xmlns="http://www.w3.org/2000/svg">
<path d="M90.4875 81.699L84.0822 78.2397L80.727 72.1352C80.727 70.2021 80.5237 68.3707 80.2187 66.4376C80.117 65.522 79.2019 64.9115 78.2869 65.0132C77.3719 65.115 76.7618 66.0307 76.8635 66.9463C77.0669 68.269 77.1685 69.6934 77.2702 71.1178H62.6295C62.6295 70.1003 62.6295 68.9812 62.5279 67.9638C62.5279 67.0481 61.7145 66.3359 60.7994 66.3359C59.8844 66.3359 59.1727 67.1498 59.1727 68.0655C59.1727 69.0829 59.2744 70.1003 59.2744 71.1178H41.9902V53.8216C43.007 53.8216 43.922 53.8216 44.9387 53.9233C44.9387 53.9233 44.9387 53.9233 45.0404 53.9233C45.9554 53.9233 46.6671 53.2112 46.6671 52.2955C46.6671 51.3798 45.9554 50.6676 45.0404 50.5659C44.0237 50.5659 43.007 50.4641 41.9902 50.4641V35.8132C45.5487 36.0167 49.1072 36.6272 52.4624 37.7463L54.1908 41.3073L46.0571 44.1561C44.9387 44.5631 44.227 45.4787 44.227 46.6997C44.227 47.9206 44.9387 48.8362 46.0571 49.2432L54.1908 52.092L50.5306 59.8244C50.0223 60.8418 50.2256 62.0627 51.039 62.8767C51.8524 63.6906 53.0724 63.8941 54.0891 63.3854L61.9178 59.7226L64.7646 67.7603C65.1713 68.8794 66.188 69.4899 67.3064 69.4899C68.4248 69.4899 69.4415 68.7777 69.8482 67.7603L72.695 59.7226L80.5237 63.3854C81.5404 63.8941 82.7604 63.6906 83.5738 62.8767C84.3872 62.0627 84.5905 60.8418 84.0822 59.8244L80.422 52.092L88.5557 49.2432C89.6741 48.8362 90.3858 47.9206 90.3858 46.6997C90.3858 45.5805 89.6741 44.5631 88.5557 44.1561L80.422 41.3073L84.0822 33.5749C84.5905 32.5575 84.3872 31.3366 83.5738 30.5226C82.7604 29.7087 81.5404 29.5052 80.5237 30.0139L72.695 33.6767L69.8482 25.639C69.4415 24.5199 68.4248 23.9094 67.3064 23.9094C66.188 23.9094 65.1713 24.6216 64.7646 25.639L61.9178 33.6767L54.0891 30.0139C53.0724 29.5052 51.8524 29.7087 51.039 30.5226C50.2256 31.3366 50.0223 32.5575 50.5306 33.5749L50.6323 33.6767C47.8872 32.9645 45.0404 32.5575 42.0919 32.4557V9.66551H54.3941C56.5292 9.66551 58.156 7.93589 58.156 5.90104V3.76446C58.156 1.62788 56.4276 0 54.3941 0H37.5167C36.6017 0 35.89 0.712196 35.89 1.62787C35.89 2.54355 36.6017 3.25575 37.5167 3.25575H54.2925C54.5975 3.25575 54.8008 3.45923 54.8008 3.76446V5.90104C54.8008 6.20627 54.5975 6.40976 54.2925 6.40976H26.3329C26.0279 6.40976 25.8245 6.20627 25.8245 5.90104V3.76446C25.8245 3.45923 26.0279 3.25575 26.3329 3.25575H31.4164C32.3315 3.25575 33.0432 2.54355 33.0432 1.62787C33.0432 0.712196 32.3315 0 31.4164 0H26.3329C24.1978 0 22.571 1.72962 22.571 3.76446V5.90104C22.571 8.03763 24.2994 9.66551 26.3329 9.66551H38.6351V32.5575C33.5515 32.761 28.5696 33.8801 24.1978 35.915C24.0961 35.915 23.9944 36.0167 23.8928 36.0167C14.844 40.0864 7.52368 47.3101 3.45683 56.3652C3.35515 56.4669 3.35515 56.5686 3.35515 56.6704C1.22005 61.554 0 67.0481 0 72.7456C0 78.4432 1.22005 83.9373 3.35515 88.8209C3.35515 88.9227 3.45683 89.0244 3.45683 89.1261C7.52368 98.1812 14.844 105.405 23.8928 109.475C23.9944 109.576 24.0961 109.576 24.1978 109.576C29.1797 111.713 34.5682 112.934 40.3635 112.934C47.3788 112.934 54.2925 111.102 60.2911 107.643C66.188 104.286 71.1699 99.5038 74.7284 93.8063C75.2368 92.9923 74.9317 91.9749 74.22 91.5679C73.4067 91.0592 72.39 91.3645 71.9833 92.0767C68.6281 97.469 64.0529 101.844 58.766 104.896C59.7827 101.335 60.5961 97.469 61.2061 93.501C63.7479 93.0941 66.188 92.6871 68.6281 92.0767C69.5432 91.8732 70.0515 90.9575 69.8482 90.1436C69.6448 89.2279 68.7298 88.7192 67.9164 88.9227C65.883 89.3296 63.8496 89.7366 61.7145 90.1436C62.3245 85.1582 62.7312 79.8676 62.7312 74.577H76.3552L74.22 78.4432L67.8148 81.699C67.3064 82.0042 67.0014 82.5129 67.0014 83.1233C67.0014 83.7338 67.3064 84.2425 67.8148 84.5477L74.22 88.007L77.6769 94.4167C77.9819 94.9254 78.4902 95.2307 79.1003 95.2307C79.7103 95.2307 80.2187 94.9254 80.5237 94.4167L83.9805 88.007L90.3858 84.5477C90.8941 84.2425 91.1992 83.7338 91.1992 83.1233C91.1992 82.5129 90.9958 82.0042 90.4875 81.699ZM61.0028 37.0341C61.7145 37.3394 62.4262 37.3394 63.1379 37.1359C63.8496 36.8307 64.3579 36.322 64.6629 35.6098L67.2047 28.4878L69.7465 35.6098C69.9499 36.322 70.5599 36.9324 71.2716 37.1359C71.9833 37.4411 72.7966 37.4411 73.4067 37.0341L80.2187 33.7784L76.9652 40.4934C76.6602 41.2056 76.6602 41.9178 76.8635 42.63C77.1685 43.3422 77.7785 43.8509 78.4902 44.1561L85.6072 46.6997L78.4902 49.2432C77.7785 49.4467 77.1685 50.0571 76.8635 50.7693C76.5585 51.4815 76.5585 52.2955 76.9652 52.9059L80.2187 59.6209L73.4067 56.3652C72.695 56.0599 71.8816 56.0599 71.2716 56.2634C70.5599 56.5686 70.0515 57.0774 69.7465 57.7896L67.2047 64.9115L64.6629 57.7896C64.4596 57.0774 63.8496 56.4669 63.1379 56.2634C62.8329 56.1617 62.4262 56.0599 62.1212 56.0599C61.7145 56.0599 61.3078 56.1617 61.0028 56.3652L54.1908 59.6209L57.4443 52.9059C57.7493 52.1937 57.7493 51.4815 57.546 50.7693C57.2409 50.0571 56.6309 49.5484 55.9192 49.2432L48.8022 46.6997L55.9192 44.1561C56.6309 43.9526 57.2409 43.3422 57.546 42.63C57.851 41.9178 57.851 41.1038 57.4443 40.4934L54.1908 33.7784L61.0028 37.0341ZM22.0627 40.6969C21.046 44.2578 20.2326 48.0223 19.6226 52.092C15.5557 52.7024 11.6922 53.5164 8.1337 54.5338C11.4889 48.7345 16.2674 43.9526 22.0627 40.6969ZM6.10028 58.5017C10.0655 57.2808 14.4373 56.2634 19.1142 55.4495C18.5042 60.4348 18.0975 65.7254 18.0975 71.016H3.35515C3.55849 66.6411 4.47354 62.3679 6.10028 58.5017ZM8.1337 90.9575C11.6922 91.9749 15.5557 92.7889 19.6226 93.3993C20.2326 97.469 21.046 101.233 22.0627 104.794C16.2674 101.437 11.4889 96.6551 8.1337 90.9575ZM38.7368 109.576C34.2632 109.373 29.993 108.355 26.1295 106.728C24.9095 102.861 23.8928 98.4864 23.0794 93.8063C28.0613 94.4167 33.3482 94.8237 38.7368 94.8237V109.576ZM38.7368 91.5679C26.8412 91.4662 15.3524 89.7366 6.20195 86.8878C4.57521 83.0216 3.55849 78.7484 3.35515 74.3735H18.0975C18.0975 78.2397 18.3008 82.1059 18.7075 85.8704C18.8092 86.7861 19.6226 87.3965 20.5376 87.3965C21.4526 87.2948 22.1643 86.4808 22.0627 85.5652C21.7577 81.9024 21.5543 78.138 21.4526 74.3735H33.7549C34.6699 74.3735 35.3816 73.6613 35.3816 72.7456C35.3816 71.83 34.6699 71.1178 33.7549 71.1178H21.351C21.4526 65.6237 21.8593 60.1296 22.4694 55.0425C27.6546 54.3303 33.0432 53.9233 38.6351 53.9233V91.5679H38.7368ZM38.7368 50.4641C33.3482 50.5659 28.0613 50.8711 23.0794 51.4815C23.8928 46.9031 24.9095 42.5282 26.1295 38.5603C30.0947 36.9324 34.2632 35.915 38.7368 35.7115V50.4641ZM54.5975 106.829C50.6323 108.457 46.3621 109.373 41.9902 109.576V94.9254C47.3788 94.8237 52.6657 94.5185 57.6476 93.908C56.9359 98.4864 55.9192 102.861 54.5975 106.829ZM58.156 90.4488C52.9707 91.161 47.4805 91.5679 41.9902 91.5679V74.3735H59.2744C59.2744 79.8676 58.8677 85.3617 58.156 90.4488ZM82.0487 85.4634C81.7437 85.5652 81.5404 85.8704 81.4387 86.0739L79.2019 90.2453L76.9652 86.0739C76.8635 85.7686 76.5585 85.5652 76.3552 85.4634L72.1866 83.2251L76.3552 80.9868C76.6602 80.885 76.8635 80.5798 76.9652 80.3763L79.2019 76.2049L81.4387 80.3763C81.5404 80.6815 81.8454 80.885 82.0487 80.9868L86.2173 83.2251L82.0487 85.4634Z" fill="white"/>
</svg>
