<svg width="82" height="87" viewBox="0 0 82 87" fill="none" xmlns="http://www.w3.org/2000/svg">
<g clip-path="url(#clip0_1_336)">
<path d="M78.8 17.7952H68.5L69.1 17.202C71 15.3237 72.1 12.7532 72.1 10.084C72.1 4.54767 67.5 0 61.9 0C59.2 0 56.6 1.08749 54.7 2.96587L40.6 16.9055L26.5 2.96587C24.6 1.08749 22 0 19.3 0C13.6 0 9 4.54767 9 10.084C9 12.7532 10.1 15.3237 12 17.202L12.6 17.7952H2.3C1 17.7952 0 18.7838 0 20.0691V84.6262C0 85.8125 1 86.9 2.3 86.9H78.9C80.1 86.9 81.2 85.9114 81.2 84.6262V20.0691C81.1 18.7838 80.1 17.7952 78.8 17.7952ZM76.6 31.1416H49.6V22.244H76.6V31.1416ZM36 31.1416V22.244H45V31.1416H36ZM45.1 35.5904V82.3523H36.1V35.5904H45.1ZM57.8 6.12947C58.9 5.04198 60.3 4.44881 61.8 4.44881C64.9 4.44881 67.5 7.01923 67.5 10.084C67.5 11.5669 66.9 13.0498 65.8 14.0385L62.1 17.7952H46L57.8 6.12947ZM15.2 14.1373C14.1 13.0498 13.5 11.6658 13.5 10.1828C13.5 7.11809 16.1 4.54767 19.2 4.54767C20.7 4.54767 22.2 5.14084 23.2 6.22833L35.1 17.7952H19L15.2 14.1373ZM31.5 22.244V31.1416H4.5V22.244H31.5ZM4.5 35.5904H31.5V82.3523H4.5V35.5904ZM76.6 82.4512H49.6V35.5904H76.6V82.4512Z" fill="white"/>
<path d="M72.1 73.4548H67.6V77.9036H72.1V73.4548Z" fill="white"/>
<path d="M72.1 64.5571H67.6V69.0059H72.1V64.5571Z" fill="white"/>
<path d="M72.1 55.6594H67.6V60.1082H72.1V55.6594Z" fill="white"/>
</g>
<defs>
<clipPath id="clip0_1_336">
<rect width="81.1" height="86.9" fill="white"/>
</clipPath>
</defs>
</svg>
