<svg width="13" height="13" viewBox="0 0 13 13" fill="none" xmlns="http://www.w3.org/2000/svg">
<path fill-rule="evenodd" clip-rule="evenodd" d="M0.140869 12.701C0.475343 11.6171 0.863018 10.5866 1.21744 9.52281C-1.13198 5.39837 1.77555 0.755247 5.71368 0.369554C9.43191 0.00534871 12.4805 2.68606 12.4897 6.34458C12.4994 10.2049 8.76942 13.4464 4.57377 12.1289C4.25729 12.0295 3.86568 11.7057 3.4972 11.684C2.98222 11.6535 2.30732 12.0246 1.78733 12.1925C1.21738 12.3765 0.721781 12.5609 0.140869 12.701ZM3.62387 10.5398C7.01199 12.6038 11.069 10.2888 11.4132 6.91667C11.7247 3.86399 9.29625 1.14781 6.0303 1.38658C2.30174 1.65912 0.0620802 6.12647 2.35729 9.39567C2.15411 9.95453 1.96398 10.5265 1.78733 11.1119C2.40941 10.9311 2.98285 10.7016 3.62387 10.5398Z" fill="#160046"/>
<path fill-rule="evenodd" clip-rule="evenodd" d="M4.95292 3.48394C5.30931 4.23218 5.86058 5.33891 4.95292 5.83586C5.41388 6.81398 6.176 7.48981 7.16935 7.93348C7.49971 7.71416 7.71663 7.38098 7.99264 7.10717C8.56925 7.33355 9.10824 7.59763 9.57578 7.93348C9.62385 9.02699 8.7058 9.43137 7.92931 9.39546C6.29114 9.31981 4.03963 7.24246 3.4964 5.70871C3.17402 4.79867 3.54479 3.05807 4.95292 3.48394Z" fill="#160046"/>
</svg>
