<svg width="44" height="43" viewBox="0 0 44 43" fill="none" xmlns="http://www.w3.org/2000/svg">
<path d="M33.9309 0H10.5627C5.16999 0 0.757812 4.24877 0.757812 9.64144V32.8462C0.757812 38.0755 5.16999 42.4877 10.5627 42.4877H33.9309C39.3236 42.4877 43.7357 38.2389 43.7357 32.8462V9.64144C43.7357 4.24877 39.3236 0 33.9309 0ZM33.7675 9.80485C34.5845 10.6219 35.2382 11.439 35.8919 12.4195H29.0285C28.3748 9.80485 27.2309 7.51705 26.087 5.55608C29.0285 6.20974 31.6431 7.68047 33.7675 9.80485ZM16.1187 20.2634C16.1187 18.3024 16.4456 16.178 16.7724 14.3804H27.5577C28.048 16.3414 28.2114 18.3024 28.2114 20.2634H16.1187ZM28.3748 22.2243C28.3748 24.1853 28.048 26.3097 27.7211 28.1072H16.9358C16.4456 26.1463 16.2822 24.1853 16.2822 22.2243H28.3748ZM22.3285 5.22925C22.6553 5.22925 23.1456 5.22925 23.4724 5.22925C24.6163 6.53657 25.5968 8.33412 26.4138 10.4585C26.7407 11.1122 26.9041 11.7658 27.0675 12.5829H17.2627C17.4261 11.9292 17.7529 11.1122 17.9163 10.4585C18.7334 8.33412 19.7139 6.53657 20.8578 5.22925C21.5114 5.22925 21.8382 5.22925 22.3285 5.22925ZM10.7261 9.80485C12.8505 7.68047 15.4651 6.20974 18.4065 5.55608C17.0992 7.51705 16.1187 9.80485 15.4651 12.4195H8.6017C9.25535 11.6024 9.90902 10.6219 10.7261 9.80485ZM7.62121 14.3804H14.9749C14.648 16.178 14.3212 18.3024 14.3212 20.2634H5.98707C6.15049 18.139 6.64073 16.178 7.62121 14.3804ZM7.62121 28.1072C6.80414 26.3097 6.15048 24.1853 6.15048 22.2243H14.3212C14.3212 24.3487 14.648 26.3097 14.9749 28.1072H7.62121ZM10.7261 32.5194C9.90902 31.7023 9.25535 30.8853 8.6017 29.9048H15.4651C16.1187 32.5194 17.2626 34.8072 18.4065 36.7682C15.4651 36.1145 12.8505 34.6438 10.7261 32.5194ZM22.3285 37.2584C22.0017 37.2584 21.5114 37.2584 21.1846 37.2584C20.0407 35.9511 19.0602 34.1536 18.2431 32.0292C17.9163 31.3755 17.7529 30.7219 17.5895 29.9048H27.3943C27.2309 30.5584 26.9041 31.3755 26.7407 32.0292C25.9236 34.1536 24.9431 35.9511 23.7992 37.2584C22.9821 37.2584 22.6553 37.2584 22.3285 37.2584ZM33.7675 32.5194C31.6431 34.6438 29.0285 36.1145 26.087 36.7682C27.3943 34.8072 28.3748 32.5194 29.0285 29.9048H35.8919C35.2382 30.8853 34.5845 31.7023 33.7675 32.5194ZM37.0358 28.1072H29.6821C30.009 26.3097 30.3358 24.1853 30.3358 22.2243H38.6699C38.3431 24.1853 37.8528 26.1463 37.0358 28.1072ZM30.1724 20.2634C30.1724 18.139 29.8455 16.178 29.5187 14.3804H36.8724C37.6894 16.178 38.3431 18.3024 38.3431 20.2634H30.1724Z" fill="white"/>
</svg>
