<svg width="66" height="44" viewBox="0 0 66 44" fill="none" xmlns="http://www.w3.org/2000/svg">
<path d="M64.3121 13.375C63.1167 10.7112 61.5945 8.42789 59.5821 6.41552C57.6256 4.45904 55.2865 2.88096 52.6764 1.73933C50.0126 0.597692 47.2391 0 44.2485 0H29.1084C29.9447 0.593392 30.7445 1.27278 31.5078 2.03387L31.5293 2.05537C33.0966 3.6528 34.3092 5.40073 35.1606 7.28411H44.2507C46.2071 7.28411 48.112 7.66465 49.8513 8.37199C51.5907 9.13309 53.1687 10.221 54.4738 11.526C55.8326 12.8848 56.8667 14.407 57.6278 16.1484C58.3889 17.9437 58.7694 19.7905 58.7694 21.7491C58.7694 23.7056 58.3889 25.5546 57.6278 27.3498C56.8667 29.0891 55.8326 30.6113 54.5297 31.9722C53.2246 33.331 51.6487 34.3652 49.9072 35.1263C48.1679 35.8336 46.2652 36.2141 44.2528 36.2141H32.9762L37.1385 43.5004H44.2507C47.2413 43.5004 50.0685 42.9027 52.6786 41.7611C55.3424 40.6194 57.6815 39.0435 59.638 37.0849C61.5945 35.0725 63.1167 32.7892 64.3142 30.1254C65.4558 27.5154 65.9998 24.7419 65.9998 21.7534C65.9976 18.7585 65.4537 15.985 64.3121 13.375Z" fill="white"/>
<path d="M24.6279 27.8937C27.1843 26.8596 29.3041 25.1203 30.9897 22.6736C32.729 20.2269 33.546 17.5094 33.546 14.4629C33.546 11.3024 32.6495 8.52249 30.8564 6.06722C30.3985 5.43728 29.8803 4.82884 29.3041 4.2419C28.7322 3.67001 28.1345 3.15616 27.5154 2.70037C25.0687 0.900838 22.2479 0 19.0832 0H0L3.7517 6.46927L4.56654 7.28411H19.0832C21.0396 7.28411 22.7252 7.99145 24.1399 9.40398C25.6083 10.8165 26.3157 12.5021 26.3157 14.4607C26.3157 16.4731 25.6083 18.2124 24.1399 19.625C22.7274 21.0375 21.0418 21.7448 19.0832 21.7448L12.6139 21.6911L25.0837 43.2446L25.2278 43.494H33.546L30.3641 37.9255L24.6279 27.8937Z" fill="white"/>
<path d="M39.2703 13.2869V31.3681L51.5639 22.3275L39.2703 13.2869Z" fill="white"/>
</svg>
