<svg width="15" height="13" viewBox="0 0 15 13" fill="none" xmlns="http://www.w3.org/2000/svg">
<mask id="path-1-inside-1_209_34" fill="white">
<path d="M6.13069 11.8534C5.71447 11.8534 5.78523 11.6962 5.64168 11.2999L4.41785 7.27226L13.8385 1.68335"/>
</mask>
<path d="M6.13069 11.8534C5.71447 11.8534 5.78523 11.6962 5.64168 11.2999L4.41785 7.27226L13.8385 1.68335" fill="white"/>
<path d="M5.64168 11.2999L5.15966 11.4464L5.16351 11.459L5.16802 11.4715L5.64168 11.2999ZM4.41785 7.27226L4.1608 6.83899L3.82094 7.04062L3.93583 7.41872L4.41785 7.27226ZM6.13069 11.3496C6.09335 11.3496 6.07223 11.3478 6.0624 11.3465C6.05261 11.3452 6.0613 11.3453 6.0805 11.3527C6.10186 11.361 6.13099 11.3762 6.16047 11.4017C6.18968 11.427 6.20804 11.4526 6.21809 11.4697C6.22685 11.4846 6.22832 11.4914 6.22428 11.48C6.22005 11.4682 6.21443 11.45 6.20465 11.4157C6.1867 11.3526 6.15871 11.2481 6.11534 11.1283L5.16802 11.4715C5.19642 11.5499 5.21342 11.6136 5.23559 11.6915C5.25303 11.7528 5.28574 11.872 5.34978 11.9808C5.43014 12.1173 5.55111 12.2283 5.71726 12.2925C5.858 12.3469 6.0053 12.3572 6.13069 12.3572V11.3496ZM6.12369 11.1534L4.89986 7.1258L3.93583 7.41872L5.15966 11.4464L6.12369 11.1534ZM4.67489 7.70553L14.0955 2.11662L13.5815 1.25008L4.1608 6.83899L4.67489 7.70553Z" fill="#160046" mask="url(#path-1-inside-1_209_34)"/>
<mask id="path-3-inside-2_209_34" fill="white">
<path d="M6.12683 11.8537C6.44799 11.8537 6.58983 11.7068 6.76915 11.5325L8.48199 9.86699L6.34543 8.57861"/>
</mask>
<path d="M6.12683 11.8537C6.44799 11.8537 6.58983 11.7068 6.76915 11.5325L8.48199 9.86699L6.34543 8.57861" fill="white"/>
<path d="M6.76915 11.5325L7.12027 11.8938L7.12035 11.8937L6.76915 11.5325ZM8.48199 9.86699L8.8332 10.2282L9.30145 9.77286L8.74214 9.43558L8.48199 9.86699ZM6.12683 12.3575C6.37404 12.3575 6.5797 12.2983 6.75937 12.191C6.91869 12.096 7.04399 11.9679 7.12027 11.8938L6.41803 11.1713C6.31499 11.2714 6.27971 11.304 6.24299 11.3259C6.22663 11.3356 6.20078 11.3499 6.12683 11.3499V12.3575ZM7.12035 11.8937L8.8332 10.2282L8.13079 9.50582L6.41795 11.1713L7.12035 11.8937ZM8.74214 9.43558L6.60558 8.1472L6.08529 9.01002L8.22185 10.2984L8.74214 9.43558Z" fill="#160046" mask="url(#path-3-inside-2_209_34)"/>
<path d="M6.34699 8.57887L11.5241 12.4038C12.1149 12.7297 12.5412 12.5609 12.6884 11.8553L14.7957 1.92478C15.0114 1.05979 14.466 0.667338 13.9007 0.923944L1.5265 5.6954C0.681853 6.03422 0.686885 6.50547 1.37256 6.7154L4.54807 7.7066L11.8997 3.06853C12.2468 2.85807 12.5654 2.97112 12.3039 3.20321" fill="#160046"/>
</svg>
