<svg width="388" height="389" viewBox="0 0 388 389" fill="none" xmlns="http://www.w3.org/2000/svg">
<path d="M187.607 387.97C185.94 387.919 184.641 387.48 183.709 386.653C182.778 385.827 182.334 384.715 182.377 383.318C182.42 381.921 182.932 380.839 183.913 380.071C184.894 379.304 186.218 378.947 187.884 378.998L191.065 379.096L191.186 375.199L193.024 375.256L192.626 388.125L187.607 387.97ZM187.89 380.599C186.726 380.563 185.83 380.781 185.202 381.252C184.573 381.736 184.245 382.443 184.216 383.375C184.187 384.307 184.471 385.027 185.069 385.536C185.666 386.058 186.547 386.336 187.712 386.372L190.837 386.469L191.016 380.696L187.89 380.599Z" fill="white"/>
<path d="M167.361 374.912L167.55 373.323L176.829 374.43L175.304 387.215L166.281 386.139L166.471 384.55L173.667 385.408L174.135 381.481L167.724 380.717L167.909 379.164L174.32 379.929L174.813 375.801L167.361 374.912Z" fill="white"/>
<path d="M150.489 381.55L154.814 382.432L157.066 371.383L158.832 371.743L156.581 382.792L160.888 383.67L160.569 385.238L150.169 383.119L150.489 381.55Z" fill="white"/>
<path d="M139.056 380.114C137.456 379.644 136.309 378.893 135.615 377.859C134.921 376.825 134.771 375.637 135.165 374.296C135.558 372.954 136.326 372.035 137.468 371.54C138.61 371.044 139.981 371.031 141.582 371.5L144.635 372.395L145.733 368.653L147.498 369.171L143.875 381.527L139.056 380.114ZM141.184 373.051C140.066 372.723 139.144 372.708 138.418 373.007C137.688 373.317 137.192 373.919 136.93 374.813C136.668 375.707 136.762 376.476 137.212 377.119C137.659 377.774 138.441 378.266 139.559 378.594L142.56 379.473L144.185 373.931L141.184 373.051Z" fill="white"/>
<path d="M126.713 362.051C127.919 362.535 128.901 363.233 129.658 364.145C130.41 365.069 130.878 366.109 131.061 367.266C131.232 368.418 131.087 369.569 130.625 370.719C130.164 371.868 129.473 372.799 128.552 373.513C127.619 374.222 126.564 374.644 125.387 374.779C124.205 374.926 123.011 374.757 121.804 374.272C120.61 373.792 119.636 373.091 118.884 372.167C118.126 371.255 117.662 370.223 117.491 369.071C117.315 367.93 117.46 366.779 117.926 365.618C118.392 364.457 119.086 363.52 120.007 362.806C120.923 362.104 121.973 361.68 123.155 361.533C124.332 361.398 125.518 361.571 126.713 362.051ZM126.103 363.57C125.227 363.218 124.362 363.102 123.507 363.221C122.642 363.336 121.871 363.661 121.194 364.195C120.501 364.736 119.98 365.439 119.633 366.304C119.286 367.168 119.177 368.03 119.308 368.889C119.423 369.754 119.753 370.528 120.299 371.21C120.833 371.887 121.538 372.401 122.415 372.753C123.291 373.105 124.167 373.226 125.044 373.115C125.91 373.001 126.689 372.673 127.382 372.132C128.059 371.597 128.571 370.898 128.919 370.033C129.266 369.168 129.382 368.303 129.267 367.438C129.136 366.579 128.798 365.809 128.253 365.127C127.696 364.441 126.979 363.922 126.103 363.57Z" fill="white"/>
<path d="M103.119 352.695L105.174 348.788L106.688 349.584L105.378 352.075L114.756 357.005L116.082 354.523L117.596 355.319L115.526 359.218L114.972 358.927C114.233 358.593 113.432 358.893 112.568 359.824C111.699 360.766 110.709 362.213 109.6 364.165L107.56 367.769L99.5496 363.558L104.796 353.577L103.119 352.695ZM108.244 363.266C109.143 361.688 109.972 360.427 110.732 359.482C111.481 358.532 112.183 357.973 112.84 357.805L106.408 354.424L101.906 362.989L106.905 365.616L108.244 363.266Z" fill="white"/>
<path d="M91.6953 358.966L90.1782 357.958L95.6721 349.683L83.8338 353.746L82.4239 352.81L89.5456 342.083L91.0474 343.08L85.5637 351.34L97.4071 347.302L98.817 348.238L91.6953 358.966Z" fill="white"/>
<path d="M78.9952 333.748C79.9926 334.562 80.7168 335.517 81.1676 336.613C81.6011 337.711 81.7318 338.831 81.5597 339.973C81.3799 341.124 80.8945 342.184 80.1035 343.153C79.3126 344.122 78.3751 344.805 77.291 345.202C76.1991 345.609 75.0711 345.701 73.9069 345.479C72.735 345.267 71.6502 344.753 70.6527 343.939C69.8737 343.303 69.2698 342.589 68.8409 341.795C68.4043 341.012 68.1674 340.177 68.1301 339.292L69.7891 339.15C69.896 340.551 70.51 341.709 71.6309 342.624C72.3719 343.229 73.1774 343.61 74.0473 343.766C74.9172 343.922 75.7635 343.845 76.5863 343.535C77.3918 343.227 78.0892 342.712 78.6785 341.99C79.2679 341.268 79.6367 340.477 79.7849 339.616C79.916 338.758 79.8179 337.918 79.4908 337.097C79.1637 336.276 78.6297 335.563 77.8887 334.958C76.7772 334.051 75.5158 333.686 74.1044 333.863L73.911 332.21C74.7857 332.069 75.6594 332.133 76.532 332.402C77.3951 332.663 78.2162 333.112 78.9952 333.748Z" fill="white"/>
<path d="M63.3437 327.479L65.2606 329.36L69.2285 325.316L70.5152 326.578L61.4973 335.769L60.2106 334.507L64.1269 330.515L62.1838 328.608L55.3789 329.766L53.974 328.387L61.6237 327.157L62.8344 319.042L64.3311 320.511L63.3437 327.479Z" fill="white"/>
<path d="M55.5375 310.504C56.3731 311.5 56.9098 312.578 57.1478 313.739C57.3763 314.908 57.2986 316.046 56.9146 317.152C56.5227 318.25 55.8524 319.197 54.9037 319.993C53.9549 320.789 52.9062 321.285 51.7576 321.48C50.6011 321.666 49.4717 321.541 48.3696 321.106C47.258 320.678 46.2845 319.966 45.4489 318.97C44.6212 317.984 44.093 316.906 43.8645 315.737C43.6265 314.576 43.7035 313.447 44.0954 312.35C44.4779 311.26 45.1482 310.314 46.1063 309.51C47.0644 308.705 48.1178 308.206 49.2665 308.01C50.4057 307.823 51.5311 307.943 52.6427 308.371C53.7448 308.807 54.7098 309.518 55.5375 310.504ZM54.2834 311.556C53.6765 310.833 52.9681 310.323 52.1585 310.026C51.341 309.719 50.5078 309.642 49.6589 309.794C48.7927 309.945 48.0027 310.319 47.2887 310.919C46.5748 311.518 46.0733 312.227 45.7841 313.046C45.4776 313.863 45.4043 314.701 45.5643 315.559C45.7164 316.408 46.0959 317.195 46.7029 317.918C47.3099 318.641 48.0261 319.161 48.8515 319.477C49.669 319.783 50.5108 319.861 51.377 319.71C52.2259 319.558 53.0073 319.183 53.7212 318.584C54.4351 317.985 54.9453 317.276 55.2518 316.459C55.541 315.64 55.6057 314.801 55.4457 313.943C55.2778 313.075 54.8904 312.28 54.2834 311.556Z" fill="white"/>
<path d="M33.0665 299.503L35.5841 303.129L44.8465 296.699L45.8745 298.18L36.6121 304.61L39.1193 308.221L37.8047 309.134L31.7519 300.416L33.0665 299.503Z" fill="white"/>
<path d="M33.3985 281.192L34.7837 280.39L39.4629 288.479L28.3176 294.927L23.7673 287.061L25.1525 286.26L28.7817 292.533L32.2049 290.553L28.9718 284.964L30.3252 284.181L33.5583 289.77L37.1566 287.688L33.3985 281.192Z" fill="white"/>
<path d="M24.8971 273.194L26.0331 275.628L31.1668 273.232L31.9292 274.865L20.2617 280.311L19.4992 278.678L24.5663 276.313L23.4148 273.846L16.6361 272.544L15.8036 270.761L23.3991 272.29L27.3777 265.114L28.2647 267.014L24.8971 273.194Z" fill="white"/>
<path d="M19.4981 253.262L21.8033 259.704L25.3113 259.954L25.9496 261.738L11.8618 260.585L11.2483 258.87L21.4012 249.025L22.0518 250.844L19.4981 253.262ZM18.3295 254.364L13.3247 259.104L20.2009 259.594L18.3295 254.364Z" fill="white"/>
<path d="M19.9096 243.262C20.0024 243.592 19.9698 243.907 19.8118 244.206C19.642 244.509 19.38 244.71 19.0258 244.809C18.6834 244.905 18.3669 244.867 18.0763 244.694C17.7738 244.524 17.5762 244.274 17.4834 243.943C17.3905 243.612 17.4248 243.303 17.5861 243.016C17.7474 242.729 18.0052 242.535 18.3594 242.436C18.7136 242.337 19.0419 242.372 19.3443 242.542C19.6316 242.703 19.82 242.943 19.9096 243.262Z" fill="white"/>
<path d="M4.19472 233.652C3.85114 232.02 3.97082 230.654 4.55376 229.554C5.1367 228.454 6.11216 227.76 7.48014 227.472C8.84812 227.184 10.0206 227.426 10.9977 228.198C11.9747 228.969 12.635 230.171 12.9786 231.803L13.6342 234.917L17.4501 234.114L17.8291 235.914L5.22925 238.566L4.19472 233.652ZM11.424 232.187C11.184 231.047 10.7608 230.227 10.1545 229.729C9.53622 229.232 8.77107 229.08 7.85909 229.272C6.9471 229.464 6.31426 229.91 5.96059 230.611C5.59491 231.315 5.53207 232.237 5.77207 233.377L6.41628 236.437L12.0682 235.247L11.424 232.187Z" fill="white"/>
<path d="M0.773387 211.036L11.9864 215.468C12.88 215.819 13.57 216.274 14.0562 216.834C14.5424 217.394 14.828 218.033 14.9132 218.752C14.9796 219.312 14.9195 219.899 14.7331 220.514L13.2155 220.212C13.3204 219.743 13.3519 219.332 13.3101 218.979C13.2148 218.175 12.7099 217.562 11.7955 217.139L11.3042 216.901L2.21509 223.202L1.98346 221.247L9.6024 216.14L0.987694 212.845L0.773387 211.036Z" fill="white"/>
<path d="M9.62186 194.503C9.62258 194.969 9.46378 195.368 9.14546 195.699C8.82712 196.019 8.4227 196.179 7.93218 196.18C7.46619 196.18 7.07352 196.015 6.75418 195.685C6.42256 195.354 6.25641 194.962 6.2557 194.508C6.255 194.055 6.41994 193.668 6.75055 193.349C7.06887 193.017 7.46102 192.851 7.92701 192.85C8.41753 192.849 8.82246 193.014 9.14181 193.345C9.46114 193.663 9.62115 194.049 9.62186 194.503Z" fill="white"/>
<path d="M7.96755 169.195C8.27593 168.354 8.72375 167.746 9.31103 167.37C9.88755 166.981 10.5899 166.835 11.4181 166.932C12.5265 167.062 13.3373 167.571 13.8507 168.458C14.3655 169.333 14.5322 170.544 14.351 172.091L13.666 177.937L0.877441 176.439L1.52179 170.94C1.68591 169.539 2.09985 168.482 2.76363 167.77C3.41665 167.044 4.27297 166.743 5.33259 166.867C6.02683 166.949 6.59685 167.194 7.04264 167.605C7.48986 168.003 7.79817 168.533 7.96755 169.195ZM6.71633 175.289L7.13376 171.727C7.23794 170.838 7.14054 170.141 6.84156 169.637C6.54402 169.12 6.05421 168.822 5.37216 168.742C4.6901 168.663 4.14464 168.839 3.73578 169.273C3.31473 169.705 3.05283 170.36 2.95008 171.237L2.53265 174.799L6.71633 175.289ZM12.9034 171.958C13.1332 169.998 12.5173 168.931 11.0558 168.76C10.325 168.675 9.75984 168.861 9.3603 169.321C8.95001 169.767 8.68778 170.477 8.57361 171.451L8.1048 175.452L12.4346 175.959L12.9034 171.958Z" fill="white"/>
<path d="M17.2996 155.632C17.0315 156.892 16.513 157.972 15.7442 158.874C14.966 159.762 14.0299 160.39 12.9358 160.759C11.8297 161.125 10.665 161.178 9.44155 160.918C8.21816 160.657 7.18198 160.136 6.33303 159.353C5.47208 158.568 4.87427 157.607 4.53959 156.47C4.19292 155.331 4.15364 154.131 4.42175 152.872C4.63114 151.888 4.99057 151.025 5.50004 150.281C5.99752 149.534 6.63138 148.942 7.40163 148.504L8.28611 149.915C7.08887 150.65 6.3396 151.726 6.03829 153.141C5.83911 154.076 5.86899 154.967 6.12791 155.812C6.38683 156.657 6.84215 157.374 7.49385 157.964C8.13612 158.54 8.91303 158.925 9.82458 159.119C10.7361 159.313 11.6084 159.279 12.4414 159.018C13.265 158.742 13.9671 158.27 14.5478 157.604C15.1284 156.938 15.5183 156.137 15.7175 155.202C16.0163 153.798 15.764 152.51 14.9608 151.336L16.3432 150.407C16.8683 151.121 17.2107 151.927 17.3704 152.826C17.5326 153.714 17.509 154.649 17.2996 155.632Z" fill="white"/>
<path d="M21.0311 135.411L22.5603 135.883L19.805 144.811L7.50146 141.015L10.1808 132.332L11.7099 132.804L9.57299 139.729L13.352 140.895L15.2557 134.726L16.7497 135.187L14.846 141.356L18.8183 142.582L21.0311 135.411Z" fill="white"/>
<path d="M17.3744 118.012L14.9078 124.157L25.379 128.34L24.7007 130.03L12.7512 125.234L15.8961 117.399L17.3744 118.012Z" fill="white"/>
<path d="M34.3617 105.241L38.2952 107.245L37.5186 108.769L35.011 107.492L30.201 116.932L32.7003 118.226L31.9237 119.75L27.9985 117.73L28.2824 117.173C28.6062 116.429 28.2969 115.632 27.3545 114.78C26.4013 113.923 24.9416 112.952 22.9755 111.867L19.3463 109.874L23.4548 101.81L33.5016 106.929L34.3617 105.241ZM23.8578 110.5C25.4471 111.379 26.7188 112.192 27.6729 112.94C28.6325 113.676 29.2003 114.372 29.3764 115.025L32.6749 108.552L24.054 104.159L21.4903 109.191L23.8578 110.5Z" fill="white"/>
<path d="M40.5908 92.101L36.8998 97.8629L38.8464 100.792L37.8245 102.387L30.1274 90.5319L31.1097 88.9985L45.1071 91.0183L44.0653 92.6446L40.5908 92.101ZM39.0044 91.8493L32.1935 90.785L36.008 96.527L39.0044 91.8493Z" fill="white"/>
<path d="M51.2286 62.8521L60.9531 71.2917L59.7715 72.6531L51.2557 65.2624L46.3607 70.9026L54.8766 78.2933L53.683 79.6686L43.9585 71.229L51.2286 62.8521Z" fill="white"/>
<path d="M60.6326 53.4134C61.8402 52.2631 63.0652 51.6467 64.3075 51.5641C65.5499 51.4816 66.6532 51.9464 67.6174 52.9586C68.5816 53.9709 68.9923 55.0954 68.8495 56.3323C68.7066 57.5692 68.0314 58.7627 66.8239 59.913L64.5197 62.1079L67.2093 64.9315L65.8774 66.2002L56.9966 56.877L60.6326 53.4134ZM65.6801 58.7924C66.5237 57.9888 66.9983 57.1981 67.1039 56.42C67.2011 55.633 66.9283 54.9022 66.2855 54.2273C65.6427 53.5525 64.9301 53.249 64.1478 53.3167C63.3571 53.3755 62.54 53.8067 61.6964 54.6102L59.4322 56.767L63.4159 60.9491L65.6801 58.7924Z" fill="white"/>
<path d="M82.3931 47.5311L77.0211 51.7694L77.903 55.1739L76.4156 56.3474L73.018 42.627L74.4476 41.4991L87.0153 47.9846L85.499 49.1809L82.3931 47.5311ZM80.9762 46.7746L74.8877 43.5417L76.6151 50.2154L80.9762 46.7746Z" fill="white"/>
<path d="M93.2909 35.6951C94.0893 35.4374 94.8293 35.4156 95.5109 35.6296C96.1858 35.8333 96.7311 36.2535 97.1468 36.8901C97.5624 37.5267 97.7225 38.2204 97.6268 38.9711C97.5348 39.7049 97.2337 40.4214 96.7237 41.1206C96.2171 41.8028 95.5686 42.402 94.7779 42.9183C94.0592 43.3876 93.2752 43.7457 92.4259 43.9927C91.5766 44.2397 90.7185 44.3386 89.8517 44.2895L89.6466 42.7978C90.3603 42.859 91.0701 42.791 91.776 42.5936C92.482 42.3963 93.1327 42.1032 93.7283 41.7144C94.5908 41.1512 95.1973 40.4989 95.5479 39.7574C95.8919 39.0056 95.856 38.3114 95.4403 37.6747C95.085 37.1305 94.5927 36.8588 93.9635 36.8596C93.3275 36.8501 92.6091 37.1069 91.8082 37.6298L89.4055 39.1986L88.5909 37.9511L90.8858 36.4526C91.5738 36.0035 92.0172 35.5162 92.2161 34.9909C92.4185 34.4487 92.3555 33.926 92.027 33.4228C91.6583 32.8581 91.1151 32.5757 90.3974 32.5756C89.6797 32.5756 88.9358 32.8269 88.1658 33.3298C87.6626 33.6583 87.1962 34.0654 86.7664 34.551C86.3468 35.03 85.9999 35.5641 85.7255 36.1533L84.4081 35.2121C84.7511 34.5488 85.1753 33.9423 85.6805 33.3927C86.1858 32.8432 86.7413 32.3706 87.3471 31.975C88.1069 31.4789 88.8822 31.1411 89.6731 30.9616C90.4639 30.7821 91.1916 30.7976 91.8562 31.008C92.5311 31.2117 93.0664 31.6165 93.4619 32.2223C93.8172 32.7665 93.975 33.3445 93.9351 33.9564C93.9055 34.5615 93.6908 35.1411 93.2909 35.6951Z" fill="white"/>
<path d="M114.502 29.5947L116.568 33.4958L115.056 34.2965L113.739 31.8095L104.376 36.7688L105.677 39.2644L104.165 40.0651L102.115 36.1554L102.668 35.8626C103.36 35.4404 103.566 34.61 103.284 33.3714C102.997 32.1219 102.361 30.4884 101.376 28.4709L99.5521 24.7533L107.55 20.5172L112.827 30.4815L114.502 29.5947ZM102.883 27.8595C103.679 29.492 104.252 30.8884 104.603 32.0486C104.964 33.2031 105.029 34.0984 104.797 34.7347L111.218 31.3338L106.689 22.7838L101.699 25.427L102.883 27.8595Z" fill="white"/>
<path d="M126.014 12.4647L130.872 24.3894L129.168 25.0833L127.003 19.7683L120.155 22.5578L122.32 27.8728L120.617 28.5668L115.759 16.6421L117.463 15.9482L119.551 21.0758L126.4 18.2862L124.311 13.1586L126.014 12.4647Z" fill="white"/>
<path d="M133.94 9.67993L135.688 9.16838L138.478 18.7014L142.997 7.02918L144.621 6.55381L148.238 18.9114L146.508 19.4178L143.723 9.90243L139.182 21.5621L137.557 22.0375L133.94 9.67993Z" fill="white"/>
<path d="M159.08 10.7359L156.442 11.238L157.501 16.8036L155.73 17.1405L153.323 4.49146L155.094 4.15448L156.139 9.64779L158.813 9.1389L161.743 2.88913L163.677 2.52121L160.325 9.50659L166.301 15.129L164.241 15.521L159.08 10.7359Z" fill="white"/>
<path d="M180.789 10.1889C180.325 10.2223 179.916 10.0918 179.563 9.79745C179.222 9.50225 179.034 9.11002 178.999 8.62076C178.965 8.15597 179.102 7.75271 179.41 7.411C179.716 7.05705 180.096 6.86384 180.548 6.83137C181.001 6.79889 181.398 6.93637 181.74 7.2438C182.093 7.53812 182.286 7.91768 182.32 8.38247C182.355 8.87173 182.218 9.28722 181.911 9.62893C181.616 9.96977 181.242 10.1564 180.789 10.1889Z" fill="white"/>
<path d="M203.195 0.433733C204.861 0.508374 206.154 0.965244 207.074 1.80434C207.993 2.64344 208.422 3.76127 208.359 5.15784C208.297 6.55441 207.77 7.62943 206.779 8.38291C205.788 9.13639 204.459 9.47581 202.793 9.40117L199.614 9.25875L199.439 13.1544L197.602 13.0721L198.178 0.208984L203.195 0.433733ZM202.809 7.8C203.973 7.85214 204.872 7.64692 205.507 7.18433C206.142 6.7095 206.48 6.00656 206.522 5.07552C206.564 4.14447 206.289 3.42022 205.699 2.90275C205.109 2.37303 204.232 2.08211 203.068 2.02997L199.944 1.89001L199.685 7.66005L202.809 7.8Z" fill="white"/>
<path d="M223.258 13.7722L223.046 15.3584L213.784 14.1237L215.485 1.3606L224.492 2.56127L224.281 4.14755L217.097 3.18992L216.575 7.11003L222.974 7.96314L222.768 9.51295L216.368 8.65984L215.819 12.7805L223.258 13.7722Z" fill="white"/>
<path d="M240.219 7.36662L235.906 6.4252L233.502 17.4416L231.74 17.0571L234.145 6.04079L229.85 5.10329L230.191 3.53979L240.561 5.80312L240.219 7.36662Z" fill="white"/>
<path d="M251.634 8.96269C253.228 9.45406 254.364 10.2215 255.044 11.265C255.723 12.3085 255.856 13.4983 255.445 14.8342C255.033 16.1701 254.252 17.078 253.103 17.5579C251.954 18.0378 250.583 18.032 248.989 17.5407L245.949 16.6031L244.8 20.3296L243.042 19.7876L246.835 7.48315L251.634 8.96269ZM249.408 15.9951C250.521 16.3384 251.443 16.3659 252.174 16.0779C252.908 15.778 253.412 15.1828 253.687 14.2922C253.961 13.4016 253.878 12.6316 253.437 11.9822C252.999 11.3211 252.223 10.8189 251.11 10.4757L248.122 9.55438L246.42 15.0738L249.408 15.9951Z" fill="white"/>
<path d="M263.725 27.1948C262.526 26.6937 261.554 25.982 260.81 25.0596C260.07 24.126 259.617 23.0794 259.45 21.9199C259.295 20.7652 259.456 19.6164 259.933 18.4736C260.411 17.3308 261.115 16.4089 262.046 15.708C262.988 15.0119 264.048 14.6044 265.228 14.4858C266.412 14.3558 267.603 14.5414 268.803 15.0426C269.991 15.539 270.955 16.254 271.694 17.1876C272.438 18.11 272.888 19.1485 273.044 20.3033C273.204 21.4467 273.043 22.5955 272.561 23.7496C272.078 24.9037 271.372 25.8312 270.441 26.5321C269.515 27.2217 268.46 27.6315 267.276 27.7615C266.097 27.8801 264.913 27.6912 263.725 27.1948ZM264.356 25.6843C265.228 26.0483 266.091 26.1765 266.947 26.0689C267.814 25.9659 268.589 25.6521 269.274 25.1274C269.974 24.596 270.504 23.9004 270.863 23.0405C271.223 22.1805 271.343 21.3204 271.224 20.46C271.121 19.593 270.802 18.8149 270.265 18.1258C269.741 17.4414 269.043 16.9171 268.172 16.5531C267.3 16.1891 266.425 16.0562 265.547 16.1543C264.68 16.2573 263.896 16.5744 263.196 17.1057C262.512 17.6305 261.99 18.3228 261.63 19.1827C261.271 20.0427 261.143 20.9061 261.246 21.7731C261.365 22.6335 261.692 23.4083 262.228 24.0974C262.776 24.7913 263.485 25.3202 264.356 25.6843Z" fill="white"/>
<path d="M287.186 36.8758L285.078 40.7545L283.575 39.9376L284.919 37.4649L275.61 32.4053L274.25 34.8692L272.747 34.0523L274.871 30.1824L275.421 30.481C276.155 30.8244 276.961 30.5365 277.837 29.6171C278.719 28.687 279.729 27.2537 280.865 25.3172L282.955 21.7423L290.906 26.064L285.521 35.971L287.186 36.8758ZM282.208 26.2356C281.288 27.8009 280.441 29.0505 279.668 29.9843C278.906 30.924 278.196 31.4732 277.538 31.6317L283.921 35.1014L288.542 26.6005L283.58 23.9038L282.208 26.2356Z" fill="white"/>
<path d="M298.696 30.7656L300.199 31.7938L294.591 39.9922L306.484 36.0932L307.881 37.0486L300.611 47.6762L299.124 46.6585L304.721 38.4752L292.823 42.3486L291.426 41.3932L298.696 30.7656Z" fill="white"/>
<path d="M311.044 56.156C310.058 55.328 309.347 54.3629 308.912 53.2607C308.493 52.1569 308.378 51.0354 308.566 49.8962C308.762 48.7476 309.262 47.6944 310.066 46.7364C310.87 45.7785 311.817 45.1084 312.907 44.7261C314.004 44.3345 315.133 44.2578 316.294 44.496C317.463 44.7249 318.541 45.2533 319.527 46.0812C320.297 46.7278 320.891 47.4507 321.309 48.2498C321.735 49.0396 321.96 49.8773 321.985 50.7629L320.324 50.8816C320.237 49.4792 319.639 48.3128 318.531 47.3823C317.798 46.7673 316.998 46.3757 316.13 46.2077C315.263 46.0396 314.415 46.1048 313.588 46.4032C312.779 46.7001 312.074 47.2054 311.475 47.9192C310.876 48.6329 310.496 49.419 310.336 50.2772C310.193 51.134 310.279 51.9751 310.595 52.8006C310.911 53.626 311.435 54.3463 312.167 54.9613C313.266 55.8839 314.522 56.2661 315.936 56.1081L316.107 57.7644C315.23 57.893 314.357 57.8168 313.488 57.5357C312.629 57.2625 311.814 56.8026 311.044 56.156Z" fill="white"/>
<path d="M326.609 62.6405L324.718 60.7333L320.695 64.7219L319.426 63.4417L328.57 54.3767L329.839 55.6569L325.868 59.5937L327.784 61.5271L334.604 60.4642L335.99 61.862L328.324 62.9862L327.001 71.0837L325.525 69.5945L326.609 62.6405Z" fill="white"/>
<path d="M334.179 79.7223C333.358 78.7151 332.836 77.6294 332.614 76.4651C332.402 75.2931 332.495 74.1565 332.894 73.0553C333.301 71.9635 333.985 71.0261 334.944 70.2432C335.904 69.4602 336.96 68.979 338.111 68.7994C339.27 68.6293 340.397 68.7698 341.493 69.2208C342.599 69.6641 343.562 70.3894 344.384 71.3966C345.198 72.3942 345.711 73.4791 345.924 74.6511C346.145 75.8153 346.053 76.9433 345.646 78.0351C345.248 79.1191 344.565 80.0565 343.596 80.8472C342.627 81.6379 341.566 82.123 340.415 82.3026C339.273 82.4744 338.15 82.3387 337.044 81.8954C335.948 81.4444 334.993 80.72 334.179 79.7223ZM335.448 78.6874C336.045 79.419 336.746 79.939 337.551 80.2473C338.364 80.5651 339.197 80.6538 340.047 80.5135C340.916 80.3749 341.711 80.0111 342.433 79.4219C343.155 78.8327 343.666 78.1307 343.967 77.3158C344.285 76.5026 344.37 75.6657 344.222 74.8053C344.081 73.9544 343.713 73.1631 343.116 72.4315C342.519 71.6998 341.81 71.1704 340.989 70.8431C340.176 70.5253 339.335 70.4357 338.467 70.5742C337.616 70.7146 336.829 71.0793 336.107 71.6685C335.385 72.2576 334.865 72.9588 334.547 73.772C334.247 74.5869 334.171 75.4246 334.319 76.285C334.474 77.155 334.851 77.9558 335.448 78.6874Z" fill="white"/>
<path d="M356.494 91.0342L354.027 87.3732L344.676 93.6747L343.669 92.1799L353.019 85.8784L350.562 82.2327L351.889 81.3384L357.821 90.1398L356.494 91.0342Z" fill="white"/>
<path d="M355.91 109.338L354.514 110.12L349.947 101.968L361.18 95.6753L365.621 103.603L364.225 104.385L360.683 98.0622L357.233 99.995L360.388 105.628L359.024 106.392L355.869 100.759L352.242 102.791L355.91 109.338Z" fill="white"/>
<path d="M364.299 117.453L363.197 115.004L358.031 117.329L357.291 115.685L369.033 110.401L369.772 112.045L364.673 114.34L365.79 116.822L372.55 118.218L373.358 120.013L365.785 118.378L361.707 125.498L360.846 123.586L364.299 117.453Z" fill="white"/>
<path d="M369.422 137.458L367.206 130.984L363.702 130.686L363.089 128.893L377.159 130.241L377.749 131.964L367.461 141.667L366.835 139.84L369.422 137.458ZM370.606 136.372L375.676 131.701L368.807 131.116L370.606 136.372Z" fill="white"/>
<path d="M368.873 147.453C368.785 147.121 368.822 146.806 368.984 146.51C369.158 146.209 369.423 146.012 369.778 145.918C370.122 145.826 370.438 145.869 370.726 146.046C371.026 146.22 371.221 146.473 371.309 146.805C371.397 147.137 371.358 147.445 371.193 147.73C371.028 148.015 370.767 148.205 370.412 148.3C370.056 148.394 369.729 148.355 369.429 148.181C369.144 148.015 368.958 147.773 368.873 147.453Z" fill="white"/>
<path d="M384.452 157.277C384.773 158.913 384.635 160.278 384.036 161.37C383.438 162.462 382.453 163.142 381.081 163.411C379.71 163.68 378.541 163.422 377.574 162.637C376.608 161.852 375.964 160.641 375.644 159.004L375.031 155.882L371.204 156.632L370.85 154.827L383.486 152.349L384.452 157.277ZM377.203 158.642C377.428 159.785 377.839 160.611 378.439 161.118C379.05 161.623 379.813 161.786 380.728 161.606C381.642 161.427 382.281 160.989 382.644 160.293C383.02 159.595 383.095 158.674 382.871 157.531L382.269 154.462L376.602 155.574L377.203 158.642Z" fill="white"/>
<path d="M387.559 179.938L376.408 175.352C375.519 174.988 374.836 174.523 374.358 173.957C373.879 173.39 373.602 172.747 373.527 172.028C373.469 171.467 373.537 170.88 373.732 170.268L375.245 170.591C375.134 171.059 375.096 171.469 375.133 171.823C375.217 172.628 375.714 173.248 376.622 173.683L377.11 173.928L386.286 167.754L386.49 169.712L378.801 174.713L387.369 178.127L387.559 179.938Z" fill="white"/>
<path d="M378.482 196.348C378.488 195.882 378.652 195.486 378.975 195.159C379.298 194.844 379.705 194.689 380.195 194.695C380.661 194.701 381.051 194.871 381.366 195.206C381.693 195.541 381.854 195.936 381.848 196.39C381.843 196.843 381.672 197.227 381.337 197.542C381.015 197.869 380.62 198.03 380.154 198.024C379.664 198.018 379.261 197.848 378.946 197.513C378.631 197.19 378.477 196.802 378.482 196.348Z" fill="white"/>
<path d="M379.785 221.676C379.465 222.512 379.009 223.114 378.416 223.482C377.835 223.863 377.13 223.999 376.303 223.891C375.197 223.745 374.393 223.226 373.892 222.331C373.39 221.449 373.24 220.236 373.442 218.692L374.208 212.856L386.975 214.531L386.254 220.021C386.071 221.419 385.642 222.47 384.969 223.173C384.306 223.89 383.445 224.179 382.388 224.04C381.695 223.949 381.128 223.695 380.688 223.279C380.246 222.875 379.945 222.34 379.785 221.676ZM381.121 215.599L380.654 219.156C380.537 220.043 380.625 220.741 380.917 221.25C381.207 221.77 381.693 222.075 382.374 222.164C383.055 222.254 383.603 222.084 384.018 221.656C384.445 221.23 384.715 220.579 384.83 219.704L385.297 216.147L381.121 215.599ZM374.888 218.844C374.631 220.802 375.232 221.876 376.691 222.068C377.421 222.164 377.988 221.985 378.394 221.531C378.811 221.091 379.083 220.384 379.21 219.412L379.735 215.417L375.412 214.85L374.888 218.844Z" fill="white"/>
<path d="M370.269 235.108C370.555 233.852 371.088 232.779 371.869 231.888C372.66 231.011 373.604 230.396 374.704 230.042C375.815 229.691 376.98 229.654 378.2 229.932C379.419 230.209 380.448 230.745 381.286 231.539C382.136 232.336 382.721 233.305 383.04 234.447C383.37 235.591 383.393 236.791 383.108 238.046C382.885 239.027 382.513 239.886 381.993 240.623C381.486 241.362 380.844 241.946 380.067 242.373L379.203 240.95C380.41 240.231 381.174 239.166 381.495 237.755C381.707 236.822 381.689 235.932 381.442 235.083C381.195 234.235 380.75 233.511 380.106 232.912C379.472 232.328 378.701 231.932 377.792 231.725C376.883 231.519 376.01 231.54 375.174 231.79C374.346 232.055 373.638 232.516 373.048 233.174C372.458 233.833 372.057 234.628 371.845 235.561C371.527 236.96 371.761 238.252 372.548 239.437L371.153 240.346C370.638 239.625 370.307 238.814 370.16 237.913C370.01 237.023 370.046 236.088 370.269 235.108Z" fill="white"/>
<path d="M366.256 255.277L364.733 254.784L367.612 245.894L379.862 249.86L377.062 258.505L375.54 258.012L377.773 251.117L374.01 249.899L372.021 256.041L370.534 255.56L372.523 249.417L368.568 248.137L366.256 255.277Z" fill="white"/>
<path d="M369.67 272.724L372.221 266.613L361.809 262.286L362.511 260.605L374.393 265.566L371.139 273.358L369.67 272.724Z" fill="white"/>
<path d="M352.507 285.26L348.602 283.202L349.399 281.688L351.889 283L356.829 273.628L354.348 272.299L355.146 270.786L359.043 272.86L358.751 273.414C358.417 274.153 358.715 274.954 359.646 275.819C360.587 276.689 362.033 277.68 363.984 278.792L367.585 280.836L363.365 288.842L353.39 283.584L352.507 285.26ZM363.083 280.147C361.506 279.246 360.246 278.416 359.302 277.655C358.353 276.905 357.794 276.202 357.627 275.545L354.24 281.973L362.799 286.484L365.432 281.489L363.083 280.147Z" fill="white"/>
<path d="M346.099 298.31L349.869 292.6L347.963 289.644L349.007 288.063L356.539 300.024L355.536 301.544L341.568 299.33L342.632 297.719L346.099 298.31ZM347.681 298.584L354.477 299.743L350.742 293.948L347.681 298.584Z" fill="white"/>
<path d="M335.057 327.41L325.451 318.837L326.651 317.492L335.063 325L340.036 319.428L331.623 311.92L332.836 310.561L342.443 319.135L335.057 327.41Z" fill="white"/>
<path d="M325.522 336.718C324.299 337.851 323.065 338.451 321.822 338.516C320.579 338.581 319.482 338.101 318.532 337.076C317.582 336.05 317.187 334.92 317.347 333.685C317.506 332.451 318.198 331.266 319.422 330.133L321.756 327.97L319.106 325.11L320.455 323.86L329.206 333.305L325.522 336.718ZM320.55 331.269C319.695 332.061 319.21 332.845 319.093 333.622C318.985 334.407 319.248 335.142 319.881 335.826C320.515 336.509 321.223 336.823 322.006 336.766C322.797 336.718 323.62 336.298 324.475 335.506L326.769 333.381L322.843 329.144L320.55 331.269Z" fill="white"/>
<path d="M303.683 342.299L309.113 338.135L308.279 334.719L309.782 333.566L312.99 347.332L311.544 348.44L299.068 341.781L300.601 340.606L303.683 342.299ZM305.09 343.075L311.133 346.391L309.498 339.694L305.09 343.075Z" fill="white"/>
<path d="M292.623 353.982C291.821 354.229 291.081 354.24 290.402 354.017C289.73 353.804 289.191 353.376 288.784 352.734C288.377 352.092 288.227 351.396 288.333 350.646C288.435 349.914 288.746 349.202 289.266 348.51C289.782 347.835 290.439 347.244 291.236 346.739C291.962 346.28 292.75 345.933 293.603 345.697C294.456 345.462 295.315 345.375 296.181 345.436L296.366 346.931C295.653 346.86 294.942 346.918 294.233 347.105C293.525 347.293 292.87 347.577 292.269 347.957C291.399 348.509 290.783 349.152 290.423 349.889C290.068 350.636 290.095 351.331 290.501 351.973C290.849 352.522 291.338 352.801 291.967 352.808C292.603 352.827 293.324 352.58 294.133 352.068L296.557 350.533L297.354 351.792L295.039 353.258C294.344 353.698 293.894 354.179 293.688 354.701C293.478 355.241 293.534 355.764 293.856 356.272C294.216 356.842 294.756 357.131 295.473 357.141C296.191 357.151 296.938 356.91 297.715 356.418C298.223 356.097 298.695 355.696 299.131 355.216C299.557 354.743 299.912 354.214 300.194 353.629L301.499 354.588C301.146 355.247 300.714 355.847 300.201 356.39C299.688 356.932 299.126 357.397 298.515 357.784C297.748 358.27 296.968 358.597 296.175 358.765C295.382 358.934 294.654 358.908 293.993 358.689C293.321 358.476 292.791 358.063 292.404 357.452C292.056 356.903 291.907 356.323 291.955 355.712C291.993 355.107 292.216 354.531 292.623 353.982Z" fill="white"/>
<path d="M271.329 359.788L269.317 355.859L270.84 355.079L272.123 357.584L281.553 352.755L280.287 350.242L281.809 349.462L283.805 353.4L283.249 353.685C282.551 354.097 282.334 354.925 282.598 356.167C282.868 357.421 283.481 359.063 284.439 361.094L286.21 364.836L278.155 368.961L273.016 358.925L271.329 359.788ZM282.922 361.684C282.15 360.041 281.596 358.637 281.261 357.472C280.916 356.312 280.863 355.416 281.104 354.783L274.637 358.095L279.047 366.707L284.073 364.133L282.922 361.684Z" fill="white"/>
<path d="M259.579 376.757L254.887 364.767L256.6 364.096L258.692 369.441L265.578 366.746L263.487 361.402L265.2 360.732L269.891 372.722L268.178 373.393L266.161 368.237L259.275 370.931L261.292 376.087L259.579 376.757Z" fill="white"/>
<path d="M251.615 379.433L249.861 379.92L247.203 370.349L242.523 381.958L240.892 382.411L237.447 370.004L239.184 369.522L241.837 379.075L246.539 367.479L248.17 367.026L251.615 379.433Z" fill="white"/>
<path d="M226.493 378.028L229.138 377.563L228.156 371.983L229.931 371.67L232.163 384.352L230.387 384.664L229.418 379.157L226.737 379.629L223.721 385.837L221.782 386.178L225.23 379.24L219.333 373.535L221.398 373.172L226.493 378.028Z" fill="white"/>
<path d="M204.779 378.274C205.245 378.247 205.652 378.383 206.001 378.682C206.337 378.982 206.52 379.377 206.548 379.867C206.575 380.332 206.432 380.733 206.12 381.071C205.809 381.42 205.427 381.608 204.974 381.635C204.521 381.661 204.126 381.518 203.788 381.206C203.439 380.906 203.251 380.524 203.224 380.059C203.196 379.569 203.338 379.156 203.65 378.818C203.95 378.482 204.326 378.3 204.779 378.274Z" fill="white"/>
</svg>
