<svg width="399" height="399" viewBox="0 0 399 399" fill="none" xmlns="http://www.w3.org/2000/svg">
<path d="M192.605 392.97C190.938 392.918 189.639 392.479 188.708 391.653C187.776 390.827 187.332 389.715 187.376 388.318C187.419 386.92 187.931 385.838 188.911 385.071C189.892 384.304 191.216 383.946 192.883 383.998L196.064 384.096L196.184 380.198L198.023 380.255L197.625 393.125L192.605 392.97ZM192.889 385.599C191.724 385.563 190.828 385.781 190.2 386.252C189.571 386.736 189.243 387.443 189.214 388.375C189.185 389.306 189.47 390.027 190.067 390.536C190.665 391.057 191.546 391.336 192.71 391.372L195.836 391.469L196.014 385.696L192.889 385.599Z" fill="white"/>
<path d="M172.359 379.912L172.548 378.323L181.827 379.429L180.302 392.215L171.279 391.139L171.469 389.55L178.665 390.408L179.133 386.481L172.722 385.717L172.908 384.164L179.319 384.928L179.811 380.801L172.359 379.912Z" fill="white"/>
<path d="M155.487 386.55L159.813 387.432L162.064 376.383L163.831 376.743L161.579 387.792L165.887 388.67L165.567 390.238L155.167 388.118L155.487 386.55Z" fill="white"/>
<path d="M144.054 385.113C142.454 384.644 141.307 383.892 140.613 382.858C139.92 381.824 139.77 380.637 140.163 379.295C140.556 377.954 141.324 377.035 142.466 376.539C143.608 376.044 144.98 376.03 146.58 376.5L149.634 377.395L150.731 373.653L152.496 374.17L148.873 386.526L144.054 385.113ZM146.183 378.051C145.065 377.723 144.143 377.708 143.416 378.006C142.686 378.316 142.19 378.918 141.928 379.813C141.666 380.707 141.76 381.476 142.21 382.119C142.657 382.774 143.44 383.265 144.558 383.593L147.558 384.473L149.183 378.931L146.183 378.051Z" fill="white"/>
<path d="M131.711 367.05C132.918 367.535 133.899 368.233 134.656 369.145C135.409 370.068 135.876 371.109 136.059 372.266C136.23 373.418 136.085 374.569 135.624 375.718C135.162 376.868 134.471 377.799 133.55 378.513C132.617 379.222 131.563 379.644 130.385 379.779C129.203 379.925 128.009 379.756 126.803 379.272C125.608 378.792 124.634 378.09 123.882 377.167C123.125 376.255 122.661 375.223 122.489 374.07C122.313 372.929 122.458 371.778 122.924 370.618C123.391 369.457 124.084 368.52 125.005 367.806C125.922 367.104 126.971 366.679 128.153 366.533C129.33 366.398 130.516 366.571 131.711 367.05ZM131.101 368.57C130.225 368.218 129.36 368.101 128.506 368.221C127.64 368.336 126.869 368.66 126.192 369.195C125.499 369.736 124.979 370.438 124.631 371.303C124.284 372.168 124.176 373.03 124.307 373.889C124.421 374.754 124.752 375.528 125.297 376.209C125.831 376.886 126.537 377.401 127.413 377.753C128.289 378.105 129.166 378.225 130.042 378.115C130.908 378 131.687 377.672 132.38 377.131C133.057 376.597 133.569 375.898 133.917 375.033C134.264 374.168 134.38 373.303 134.266 372.437C134.135 371.579 133.796 370.808 133.251 370.127C132.694 369.441 131.977 368.921 131.101 368.57Z" fill="white"/>
<path d="M108.118 357.695L110.172 353.787L111.686 354.583L110.377 357.074L119.755 362.005L121.081 359.522L122.595 360.318L120.524 364.217L119.971 363.926C119.232 363.593 118.43 363.892 117.566 364.823C116.697 365.766 115.708 367.213 114.598 369.165L112.558 372.768L104.548 368.557L109.795 358.577L108.118 357.695ZM113.242 368.265C114.141 366.687 114.971 365.426 115.73 364.482C116.479 363.531 117.182 362.973 117.838 362.805L111.407 359.424L106.904 367.988L111.903 370.616L113.242 368.265Z" fill="white"/>
<path d="M96.6935 363.965L95.1763 362.958L100.67 354.683L88.8319 358.746L87.4221 357.81L94.5437 347.083L96.0456 348.08L90.5619 356.34L102.405 352.302L103.815 353.238L96.6935 363.965Z" fill="white"/>
<path d="M83.9932 338.747C84.9907 339.562 85.7149 340.517 86.1657 341.613C86.5992 342.711 86.7299 343.831 86.5578 344.972C86.378 346.123 85.8926 347.184 85.1016 348.153C84.3107 349.122 83.3732 349.805 82.2891 350.202C81.1972 350.609 80.0692 350.701 78.905 350.479C77.7331 350.266 76.6483 349.753 75.6508 348.939C74.8718 348.303 74.2679 347.588 73.839 346.795C73.4024 346.011 73.1655 345.177 73.1282 344.292L74.7872 344.15C74.8941 345.551 75.5081 346.709 76.629 347.624C77.37 348.229 78.1755 348.609 79.0454 348.765C79.9153 348.921 80.7616 348.844 81.5844 348.535C82.3899 348.226 83.0873 347.711 83.6766 346.989C84.266 346.267 84.6348 345.476 84.783 344.616C84.9141 343.757 84.816 342.917 84.4889 342.096C84.1618 341.275 83.6278 340.562 82.8868 339.958C81.7753 339.05 80.5139 338.685 79.1025 338.863L78.9091 337.209C79.7838 337.069 80.6575 337.133 81.5301 337.402C82.3932 337.663 83.2143 338.112 83.9932 338.747Z" fill="white"/>
<path d="M68.3418 332.478L70.2587 334.359L74.2266 330.315L75.5133 331.578L66.4954 340.769L65.2087 339.506L69.125 335.515L67.1818 333.608L60.377 334.765L58.9721 333.387L66.6218 332.157L67.8324 324.042L69.3292 325.51L68.3418 332.478Z" fill="white"/>
<path d="M60.5355 315.503C61.3711 316.499 61.9079 317.577 62.1458 318.738C62.3744 319.907 62.2967 321.045 61.9127 322.152C61.5208 323.249 60.8505 324.196 59.9017 324.992C58.953 325.788 57.9043 326.284 56.7557 326.48C55.5991 326.666 54.4698 326.541 53.3676 326.105C52.2561 325.677 51.2825 324.965 50.4469 323.97C49.6192 322.983 49.0911 321.906 48.8625 320.737C48.6246 319.576 48.7015 318.446 49.0934 317.349C49.4759 316.26 50.1462 315.313 51.1044 314.509C52.0625 313.705 53.1159 313.205 54.2645 313.01C55.4038 312.822 56.5292 312.942 57.6407 313.37C58.7429 313.806 59.7078 314.517 60.5355 315.503ZM59.2815 316.556C58.6745 315.832 57.9662 315.322 57.1566 315.025C56.3391 314.719 55.5058 314.641 54.6569 314.793C53.7908 314.944 53.0007 315.319 52.2868 315.918C51.5729 316.517 51.0713 317.226 50.7821 318.045C50.4756 318.863 50.4024 319.701 50.5623 320.559C50.7144 321.408 51.094 322.194 51.701 322.917C52.3079 323.64 53.0241 324.16 53.8495 324.476C54.667 324.782 55.5089 324.86 56.3751 324.71C57.224 324.558 58.0054 324.182 58.7193 323.583C59.4332 322.984 59.9434 322.276 60.2499 321.458C60.5391 320.639 60.6037 319.8 60.4438 318.942C60.2759 318.074 59.8885 317.279 59.2815 316.556Z" fill="white"/>
<path d="M38.0647 304.503L40.5823 308.129L49.8447 301.699L50.8728 303.179L41.6104 309.61L44.1175 313.221L42.8029 314.134L36.7502 305.415L38.0647 304.503Z" fill="white"/>
<path d="M38.3966 286.191L39.7818 285.39L44.4611 293.478L33.3157 299.926L28.7654 292.061L30.1506 291.259L33.7798 297.533L37.203 295.552L33.9699 289.964L35.3233 289.181L38.5564 294.769L42.1547 292.688L38.3966 286.191Z" fill="white"/>
<path d="M29.8952 278.194L31.0312 280.627L36.1649 278.231L36.9273 279.865L25.2598 285.311L24.4974 283.677L29.5644 281.312L28.4129 278.845L21.6342 277.544L20.8017 275.76L28.3972 277.29L32.3758 270.114L33.2628 272.014L29.8952 278.194Z" fill="white"/>
<path d="M24.4965 258.261L26.8017 264.704L30.3097 264.953L30.948 266.737L16.8602 265.585L16.2467 263.87L26.3996 254.025L27.0502 255.843L24.4965 258.261ZM23.3279 259.363L18.3231 264.104L25.1993 264.594L23.3279 259.363Z" fill="white"/>
<path d="M24.9079 248.261C25.0007 248.592 24.9681 248.907 24.8101 249.206C24.6403 249.508 24.3783 249.709 24.0241 249.809C23.6817 249.905 23.3652 249.866 23.0746 249.693C22.7721 249.524 22.5745 249.273 22.4817 248.943C22.3889 248.612 22.4231 248.303 22.5844 248.016C22.7458 247.729 23.0035 247.535 23.3577 247.436C23.7119 247.336 24.0402 247.371 24.3426 247.541C24.6299 247.703 24.8183 247.943 24.9079 248.261Z" fill="white"/>
<path d="M9.19294 238.652C8.84936 237.02 8.96904 235.654 9.55198 234.554C10.1349 233.454 11.1104 232.759 12.4784 232.471C13.8463 232.183 15.0189 232.425 15.9959 233.197C16.9729 233.969 17.6332 235.171 17.9768 236.803L18.6324 239.917L22.4484 239.113L22.8273 240.913L10.2275 243.566L9.19294 238.652ZM16.4222 237.186C16.1822 236.046 15.7591 235.227 15.1528 234.728C14.5344 234.232 13.7693 234.079 12.8573 234.271C11.9453 234.463 11.3125 234.91 10.9588 235.611C10.5931 236.315 10.5303 237.236 10.7703 238.376L11.4145 241.436L17.0664 240.246L16.4222 237.186Z" fill="white"/>
<path d="M5.77169 216.036L16.9847 220.468C17.8784 220.819 18.5683 221.274 19.0545 221.834C19.5407 222.394 19.8263 223.033 19.9115 223.751C19.9779 224.311 19.9178 224.899 19.7314 225.514L18.2138 225.212C18.3187 224.743 18.3502 224.331 18.3084 223.978C18.2131 223.174 17.7083 222.561 16.7938 222.139L16.3025 221.901L7.2134 228.201L6.98177 226.247L14.6007 221.139L5.986 217.844L5.77169 216.036Z" fill="white"/>
<path d="M14.6202 199.503C14.6209 199.969 14.4621 200.368 14.1438 200.699C13.8255 201.018 13.4211 201.178 12.9305 201.179C12.4646 201.18 12.0719 201.015 11.7525 200.684C11.4209 200.354 11.2548 199.962 11.2541 199.508C11.2534 199.054 11.4183 198.668 11.7489 198.348C12.0672 198.017 12.4594 197.851 12.9254 197.85C13.4159 197.849 13.8208 198.014 14.1402 198.345C14.4595 198.663 14.6195 199.049 14.6202 199.503Z" fill="white"/>
<path d="M12.9658 174.194C13.2742 173.354 13.722 172.746 14.3093 172.37C14.8858 171.981 15.5882 171.835 16.4164 171.932C17.5247 172.062 18.3356 172.57 18.849 173.458C19.3637 174.333 19.5305 175.544 19.3493 177.091L18.6642 182.937L5.87571 181.438L6.52005 175.939C6.68417 174.539 7.09812 173.482 7.7619 172.77C8.41492 172.044 9.27124 171.743 10.3309 171.867C11.0251 171.948 11.5951 172.194 12.0409 172.604C12.4881 173.003 12.7964 173.533 12.9658 174.194ZM11.7146 180.289L12.132 176.727C12.2362 175.837 12.1388 175.141 11.8398 174.637C11.5423 174.12 11.0525 173.822 10.3704 173.742C9.68837 173.662 9.14291 173.839 8.73404 174.273C8.313 174.705 8.0511 175.359 7.94835 176.236L7.53091 179.799L11.7146 180.289ZM17.9017 176.958C18.1315 174.997 17.5156 173.931 16.054 173.76C15.3233 173.674 14.7581 173.861 14.3586 174.321C13.9483 174.766 13.686 175.476 13.5719 176.451L13.1031 180.452L17.4329 180.959L17.9017 176.958Z" fill="white"/>
<path d="M22.2979 160.632C22.0297 161.891 21.5113 162.972 20.7425 163.874C19.9643 164.762 19.0282 165.39 17.9341 165.759C16.828 166.125 15.6632 166.178 14.4398 165.918C13.2165 165.657 12.1803 165.136 11.3313 164.353C10.4704 163.568 9.87256 162.607 9.53788 161.47C9.19121 160.33 9.15193 159.131 9.42005 157.872C9.62943 156.888 9.98886 156.024 10.4983 155.28C10.9958 154.534 11.6297 153.941 12.3999 153.503L13.2844 154.914C12.0872 155.65 11.3379 156.725 11.0366 158.141C10.8374 159.076 10.8673 159.966 11.1262 160.811C11.3851 161.656 11.8404 162.374 12.4921 162.964C13.1344 163.54 13.9113 163.924 14.8229 164.118C15.7344 164.313 16.6067 164.279 17.4397 164.017C18.2633 163.741 18.9654 163.27 19.546 162.604C20.1267 161.938 20.5166 161.137 20.7158 160.201C21.0146 158.798 20.7623 157.509 19.9591 156.335L21.3415 155.407C21.8666 156.121 22.209 156.927 22.3686 157.826C22.5308 158.713 22.5072 159.649 22.2979 160.632Z" fill="white"/>
<path d="M26.0292 140.41L27.5584 140.882L24.8031 149.811L12.4996 146.014L15.1789 137.332L16.708 137.803L14.5711 144.729L18.35 145.895L20.2538 139.725L21.7478 140.186L19.844 146.356L23.8163 147.582L26.0292 140.41Z" fill="white"/>
<path d="M22.3726 123.011L19.906 129.157L30.3771 133.34L29.6988 135.03L17.7494 130.234L20.8943 122.398L22.3726 123.011Z" fill="white"/>
<path d="M39.36 110.24L43.2935 112.245L42.5169 113.769L40.0093 112.491L35.1993 121.932L37.6986 123.226L36.922 124.75L32.9968 122.729L33.2807 122.172C33.6045 121.429 33.2952 120.631 32.3528 119.779C31.3996 118.922 29.9399 117.951 27.9738 116.867L24.3446 114.873L28.4531 106.81L38.4999 111.929L39.36 110.24ZM28.8561 115.5C30.4454 116.378 31.7171 117.191 32.6712 117.939C33.6308 118.676 34.1986 119.371 34.3747 120.025L37.6732 113.551L29.0523 109.159L26.4886 114.19L28.8561 115.5Z" fill="white"/>
<path d="M45.5892 97.1006L41.8982 102.862L43.8448 105.791L42.8229 107.387L35.1258 95.5315L36.1081 93.9981L50.1055 96.0179L49.0637 97.6443L45.5892 97.1006ZM44.0028 96.8489L37.1919 95.7846L41.0064 101.527L44.0028 96.8489Z" fill="white"/>
<path d="M56.2268 67.8516L65.9513 76.2912L64.7697 77.6526L56.2539 70.262L51.3589 75.9022L59.8748 83.2928L58.6812 84.6682L48.9567 76.2285L56.2268 67.8516Z" fill="white"/>
<path d="M65.631 58.413C66.8385 57.2628 68.0635 56.6463 69.3058 56.5638C70.5482 56.4812 71.6515 56.946 72.6157 57.9583C73.5799 58.9705 73.9906 60.0951 73.8478 61.3319C73.705 62.5688 73.0298 63.7624 71.8222 64.9127L69.518 67.1075L72.2077 69.9311L70.8758 71.1998L61.9949 61.8766L65.631 58.413ZM70.6785 63.792C71.522 62.9885 71.9966 62.1977 72.1022 61.4196C72.1994 60.6327 71.9266 59.9018 71.2838 59.227C70.641 58.5521 69.9284 58.2486 69.1462 58.3163C68.3554 58.3752 67.5383 58.8063 66.6948 59.6098L64.4306 61.7666L68.4143 65.9488L70.6785 63.792Z" fill="white"/>
<path d="M87.3914 52.5306L82.0193 56.7689L82.9012 60.1734L81.4138 61.3469L78.0162 47.6265L79.4458 46.4986L92.0135 52.9841L90.4972 54.1804L87.3914 52.5306ZM85.9744 51.7741L79.8859 48.5412L81.6133 55.2149L85.9744 51.7741Z" fill="white"/>
<path d="M98.2892 40.6944C99.0876 40.4367 99.8276 40.4149 100.509 40.6289C101.184 40.8326 101.729 41.2528 102.145 41.8894C102.561 42.526 102.721 43.2197 102.625 43.9705C102.533 44.7043 102.232 45.4208 101.722 46.12C101.215 46.8022 100.567 47.4014 99.7762 47.9176C99.0575 48.3869 98.2735 48.7451 97.4242 48.992C96.5749 49.239 95.7168 49.3379 94.85 49.2888L94.6449 47.7971C95.3586 47.8584 96.0684 47.7903 96.7743 47.593C97.4803 47.3957 98.131 47.1026 98.7266 46.7137C99.5891 46.1506 100.196 45.4982 100.546 44.7567C100.89 44.0049 100.854 43.3107 100.439 42.6741C100.083 42.1299 99.591 41.8582 98.9618 41.859C98.3258 41.8495 97.6074 42.1062 96.8065 42.6292L94.4038 44.198L93.5892 42.9504L95.8841 41.452C96.5721 41.0028 97.0155 40.5156 97.2144 39.9903C97.4168 39.448 97.3538 38.9253 97.0253 38.4222C96.6566 37.8574 96.1134 37.575 95.3957 37.575C94.678 37.5749 93.9341 37.8263 93.164 38.3291C92.6609 38.6576 92.1945 39.0647 91.7646 39.5504C91.3451 40.0294 90.9982 40.5635 90.7238 41.1527L89.4063 40.2115C89.7494 39.5481 90.1736 38.9417 90.6788 38.3921C91.1841 37.8425 91.7396 37.37 92.3454 36.9744C93.1052 36.4783 93.8805 36.1405 94.6714 35.961C95.4622 35.7815 96.1899 35.7969 96.8545 36.0073C97.5294 36.2111 98.0647 36.6158 98.4602 37.2217C98.8155 37.7659 98.9733 38.3439 98.9334 38.9557C98.9038 39.5609 98.6891 40.1404 98.2892 40.6944Z" fill="white"/>
<path d="M119.5 34.5942L121.566 38.4954L120.054 39.2961L118.737 36.8091L109.374 41.7684L110.675 44.264L109.164 45.0647L107.113 41.1549L107.666 40.8622C108.358 40.44 108.564 39.6096 108.282 38.371C107.995 37.1215 107.359 35.488 106.374 33.4705L104.55 29.7528L112.548 25.5168L117.825 35.481L119.5 34.5942ZM107.882 32.8591C108.677 34.4916 109.25 35.888 109.601 37.0482C109.963 38.2026 110.027 39.098 109.796 39.7343L116.216 36.3334L111.687 27.7833L106.697 30.4266L107.882 32.8591Z" fill="white"/>
<path d="M131.013 17.4642L135.87 29.3889L134.167 30.0828L132.002 24.7678L125.154 27.5574L127.319 32.8723L125.615 33.5663L120.758 21.6416L122.461 20.9477L124.55 26.0753L131.398 23.2857L129.309 18.1581L131.013 17.4642Z" fill="white"/>
<path d="M138.939 14.6794L140.686 14.1678L143.477 23.7008L147.995 12.0286L149.619 11.5533L153.236 23.9108L151.506 24.4172L148.721 14.9019L144.18 26.5616L142.556 27.0369L138.939 14.6794Z" fill="white"/>
<path d="M164.078 15.7354L161.44 16.2374L162.499 21.803L160.728 22.14L158.321 9.49089L160.092 9.15392L161.137 14.6472L163.812 14.1383L166.742 7.88856L168.675 7.52064L165.323 14.506L171.299 20.1284L169.239 20.5204L164.078 15.7354Z" fill="white"/>
<path d="M185.788 15.1887C185.323 15.222 184.914 15.0915 184.561 14.7972C184.22 14.502 184.032 14.1098 183.997 13.6205C183.964 13.1557 184.101 12.7525 184.408 12.4108C184.715 12.0568 185.094 11.8636 185.547 11.8311C185.999 11.7986 186.396 11.9361 186.738 12.2436C187.091 12.5379 187.284 12.9174 187.318 13.3822C187.353 13.8715 187.217 14.287 186.909 14.6287C186.614 14.9695 186.24 15.1562 185.788 15.1887Z" fill="white"/>
<path d="M208.193 5.43332C209.859 5.50796 211.152 5.96483 212.072 6.80393C212.991 7.64302 213.42 8.76086 213.357 10.1574C213.295 11.554 212.768 12.629 211.777 13.3825C210.786 14.136 209.457 14.4754 207.791 14.4008L204.612 14.2583L204.437 18.154L202.6 18.0717L203.176 5.20857L208.193 5.43332ZM207.807 12.7996C208.971 12.8517 209.87 12.6465 210.505 12.1839C211.14 11.7091 211.478 11.0061 211.52 10.0751C211.562 9.14406 211.287 8.4198 210.697 7.90233C210.107 7.37262 209.23 7.08169 208.066 7.02955L204.942 6.8896L204.683 12.6596L207.807 12.7996Z" fill="white"/>
<path d="M228.256 18.7716L228.045 20.3579L218.782 19.1232L220.484 6.36008L229.491 7.56076L229.279 9.14703L222.096 8.18941L221.573 12.1095L227.973 12.9626L227.766 14.5124L221.366 13.6593L220.817 17.78L228.256 18.7716Z" fill="white"/>
<path d="M245.217 12.3661L240.904 11.4247L238.5 22.441L236.739 22.0566L239.143 11.0403L234.848 10.1028L235.189 8.53928L245.559 10.8026L245.217 12.3661Z" fill="white"/>
<path d="M256.633 13.9621C258.226 14.4535 259.363 15.221 260.042 16.2645C260.721 17.308 260.855 18.4977 260.443 19.8336C260.031 21.1696 259.251 22.0775 258.102 22.5573C256.953 23.0372 255.582 23.0315 253.988 22.5401L250.947 21.6025L249.798 25.329L248.04 24.7871L251.834 12.4826L256.633 13.9621ZM254.407 20.9946C255.52 21.3378 256.442 21.3654 257.172 21.0773C257.906 20.7775 258.411 20.1823 258.685 19.2917C258.96 18.4011 258.876 17.6311 258.435 16.9817C257.997 16.3206 257.222 15.8184 256.108 15.4752L253.12 14.5538L251.418 20.0733L254.407 20.9946Z" fill="white"/>
<path d="M268.724 32.1945C267.524 31.6933 266.552 30.9816 265.808 30.0593C265.069 29.1256 264.615 28.0791 264.449 26.9196C264.293 25.7648 264.454 24.6161 264.932 23.4732C265.409 22.3304 266.113 21.4086 267.044 20.7077C267.986 20.0115 269.047 19.6041 270.226 19.4855C271.41 19.3555 272.602 19.5411 273.801 20.0422C274.989 20.5386 275.953 21.2536 276.693 22.1873C277.437 23.1096 277.887 24.1482 278.042 25.3029C278.202 26.4464 278.041 27.5951 277.559 28.7493C277.077 29.9034 276.37 30.8309 275.44 31.5318C274.514 32.2214 273.459 32.6312 272.275 32.7611C271.095 32.8798 269.912 32.6909 268.724 32.1945ZM269.355 30.6839C270.226 31.048 271.089 31.1762 271.945 31.0685C272.812 30.9656 273.588 30.6518 274.272 30.127C274.973 29.5957 275.503 28.9001 275.862 28.0401C276.221 27.1802 276.341 26.32 276.222 25.4596C276.119 24.5926 275.8 23.8146 275.264 23.1254C274.739 22.441 274.041 21.9168 273.17 21.5528C272.299 21.1887 271.424 21.0558 270.546 21.154C269.679 21.2569 268.895 21.574 268.194 22.1054C267.51 22.6301 266.988 23.3225 266.629 24.1824C266.27 25.0423 266.141 25.9058 266.244 26.7728C266.363 27.6332 266.691 28.408 267.227 29.0971C267.774 29.791 268.483 30.3199 269.355 30.6839Z" fill="white"/>
<path d="M292.184 41.8752L290.076 45.754L288.573 44.9371L289.917 42.4644L280.608 37.4048L279.248 39.8687L277.745 39.0518L279.869 35.1818L280.419 35.4805C281.153 35.8239 281.959 35.5359 282.835 34.6166C283.718 33.6865 284.727 32.2532 285.863 30.3166L287.953 26.7418L295.904 31.0635L290.52 40.9705L292.184 41.8752ZM287.207 31.2351C286.286 32.8004 285.439 34.05 284.667 34.9838C283.905 35.9235 283.194 36.4726 282.536 36.6312L288.92 40.1009L293.54 31.5999L288.579 28.9033L287.207 31.2351Z" fill="white"/>
<path d="M303.694 35.7652L305.197 36.7934L299.589 44.9918L311.483 41.0928L312.879 42.0482L305.61 52.6758L304.122 51.6581L309.719 43.4748L297.821 47.3482L296.424 46.3928L303.694 35.7652Z" fill="white"/>
<path d="M316.042 61.1555C315.056 60.3276 314.345 59.3625 313.91 58.2603C313.492 57.1565 313.376 56.035 313.564 54.8958C313.76 53.7472 314.26 52.6939 315.064 51.736C315.869 50.778 316.816 50.1079 317.905 49.7257C319.002 49.3341 320.132 49.2574 321.293 49.4956C322.462 49.7245 323.539 50.2528 324.525 51.0808C325.295 51.7274 325.889 52.4502 326.307 53.2494C326.733 54.0392 326.958 54.8769 326.983 55.7625L325.322 55.8812C325.235 54.4788 324.637 53.3123 323.529 52.3819C322.796 51.7668 321.996 51.3753 321.129 51.2072C320.261 51.0392 319.414 51.1043 318.587 51.4028C317.777 51.6997 317.072 52.205 316.473 52.9188C315.874 53.6325 315.494 54.4185 315.334 55.2768C315.191 56.1335 315.277 56.9747 315.593 57.8001C315.909 58.6256 316.433 59.3459 317.166 59.9609C318.264 60.8835 319.521 61.2657 320.934 61.1076L321.105 62.7639C320.228 62.8926 319.356 62.8164 318.487 62.5353C317.627 62.262 316.813 61.8021 316.042 61.1555Z" fill="white"/>
<path d="M331.607 67.6403L329.716 65.7331L325.693 69.7217L324.424 68.4414L333.568 59.3765L334.837 60.6567L330.866 64.5935L332.782 66.5268L339.603 65.464L340.988 66.8618L333.322 67.986L331.999 76.0835L330.523 74.5943L331.607 67.6403Z" fill="white"/>
<path d="M339.177 84.7218C338.356 83.7146 337.834 82.6289 337.612 81.4646C337.4 80.2926 337.493 79.156 337.892 78.0547C338.299 76.963 338.983 76.0256 339.942 75.2427C340.902 74.4597 341.958 73.9784 343.109 73.7989C344.268 73.6288 345.395 73.7693 346.491 74.2203C347.597 74.6636 348.56 75.3889 349.382 76.396C350.196 77.3937 350.709 78.4786 350.922 79.6506C351.144 80.8148 351.051 81.9428 350.644 83.0346C350.246 84.1186 349.563 85.0559 348.594 85.8466C347.625 86.6374 346.564 87.1225 345.413 87.3021C344.271 87.4739 343.148 87.3382 342.042 86.8949C340.946 86.4438 339.991 85.7195 339.177 84.7218ZM340.446 83.6869C341.043 84.4185 341.744 84.9385 342.549 85.2468C343.362 85.5645 344.195 85.6533 345.045 85.513C345.914 85.3744 346.709 85.0105 347.431 84.4214C348.153 83.8322 348.664 83.1302 348.965 82.3152C349.283 81.502 349.368 80.6652 349.22 79.8048C349.079 78.9539 348.711 78.1626 348.114 77.4309C347.517 76.6993 346.808 76.1698 345.987 75.8426C345.174 75.5248 344.333 75.4352 343.465 75.5737C342.614 75.714 341.827 76.0788 341.105 76.6679C340.383 77.2571 339.863 77.9583 339.545 78.7715C339.245 79.5864 339.169 80.4241 339.317 81.2845C339.473 82.1545 339.849 82.9552 340.446 83.6869Z" fill="white"/>
<path d="M361.492 96.0338L359.025 92.3728L349.674 98.6743L348.667 97.1794L358.017 90.878L355.56 87.2323L356.887 86.338L362.819 95.1394L361.492 96.0338Z" fill="white"/>
<path d="M360.908 114.338L359.512 115.12L354.945 106.968L366.178 100.675L370.619 108.602L369.223 109.385L365.681 103.062L362.231 104.994L365.386 110.627L364.022 111.391L360.867 105.759L357.24 107.79L360.908 114.338Z" fill="white"/>
<path d="M369.298 122.453L368.195 120.004L363.029 122.329L362.289 120.685L374.031 115.401L374.771 117.044L369.672 119.339L370.789 121.822L377.549 123.217L378.356 125.012L370.783 123.378L366.705 130.498L365.845 128.585L369.298 122.453Z" fill="white"/>
<path d="M374.42 142.457L372.204 135.983L368.7 135.686L368.087 133.893L382.157 135.241L382.747 136.964L372.459 146.667L371.833 144.84L374.42 142.457ZM375.604 141.372L380.674 136.701L373.805 136.116L375.604 141.372Z" fill="white"/>
<path d="M373.872 152.452C373.783 152.12 373.82 151.806 373.982 151.509C374.156 151.209 374.421 151.012 374.777 150.917C375.12 150.826 375.436 150.869 375.724 151.046C376.025 151.22 376.219 151.473 376.307 151.805C376.395 152.136 376.357 152.445 376.191 152.73C376.026 153.015 375.766 153.205 375.41 153.299C375.055 153.394 374.727 153.354 374.427 153.18C374.142 153.015 373.957 152.772 373.872 152.452Z" fill="white"/>
<path d="M389.45 162.276C389.771 163.913 389.633 165.277 389.035 166.369C388.437 167.461 387.452 168.142 386.08 168.411C384.708 168.68 383.539 168.422 382.573 167.637C381.606 166.851 380.963 165.64 380.642 164.004L380.029 160.881L376.203 161.631L375.849 159.826L388.484 157.349L389.45 162.276ZM382.202 163.642C382.426 164.785 382.838 165.61 383.437 166.117C384.048 166.622 384.811 166.785 385.726 166.606C386.64 166.426 387.279 165.989 387.643 165.293C388.018 164.594 388.094 163.673 387.869 162.53L387.268 159.462L381.6 160.573L382.202 163.642Z" fill="white"/>
<path d="M392.557 184.938L381.406 180.351C380.518 179.988 379.834 179.523 379.356 178.956C378.877 178.39 378.601 177.747 378.525 177.027C378.467 176.466 378.535 175.88 378.73 175.267L380.243 175.59C380.132 176.058 380.095 176.469 380.132 176.823C380.216 177.627 380.712 178.248 381.621 178.683L382.109 178.928L391.284 172.754L391.488 174.711L383.8 179.713L392.368 183.127L392.557 184.938Z" fill="white"/>
<path d="M383.481 201.348C383.486 200.882 383.651 200.485 383.973 200.158C384.296 199.843 384.703 199.689 385.193 199.695C385.659 199.701 386.05 199.871 386.364 200.206C386.691 200.541 386.852 200.936 386.846 201.389C386.841 201.843 386.671 202.227 386.336 202.542C386.013 202.869 385.618 203.03 385.152 203.024C384.662 203.018 384.259 202.847 383.944 202.512C383.63 202.19 383.475 201.802 383.481 201.348Z" fill="white"/>
<path d="M384.783 226.676C384.463 227.512 384.007 228.114 383.415 228.481C382.833 228.862 382.129 228.999 381.302 228.89C380.195 228.745 379.392 228.225 378.891 227.331C378.388 226.449 378.238 225.235 378.441 223.691L379.207 217.855L391.973 219.531L391.253 225.02C391.069 226.419 390.641 227.469 389.967 228.172C389.304 228.889 388.444 229.178 387.386 229.04C386.693 228.949 386.126 228.695 385.686 228.278C385.245 227.874 384.944 227.34 384.783 226.676ZM386.119 220.599L385.652 224.155C385.536 225.043 385.623 225.741 385.915 226.249C386.206 226.77 386.691 227.075 387.372 227.164C388.053 227.253 388.601 227.084 389.016 226.656C389.443 226.23 389.714 225.579 389.829 224.704L390.295 221.147L386.119 220.599ZM379.886 223.844C379.629 225.801 380.23 226.876 381.689 227.067C382.419 227.163 382.987 226.984 383.393 226.53C383.809 226.09 384.081 225.384 384.209 224.411L384.733 220.417L380.41 219.85L379.886 223.844Z" fill="white"/>
<path d="M375.267 240.108C375.553 238.852 376.086 237.779 376.867 236.887C377.658 236.011 378.603 235.396 379.702 235.042C380.813 234.691 381.978 234.654 383.198 234.931C384.418 235.209 385.446 235.745 386.284 236.539C387.134 237.336 387.719 238.305 388.038 239.447C388.369 240.591 388.391 241.791 388.106 243.046C387.883 244.027 387.511 244.885 386.992 245.622C386.484 246.362 385.842 246.946 385.066 247.373L384.201 245.95C385.408 245.231 386.172 244.166 386.493 242.755C386.705 241.822 386.688 240.932 386.44 240.083C386.193 239.235 385.748 238.511 385.104 237.912C384.47 237.327 383.699 236.932 382.79 236.725C381.881 236.518 381.009 236.54 380.172 236.79C379.345 237.055 378.636 237.516 378.046 238.174C377.456 238.832 377.055 239.628 376.843 240.56C376.525 241.959 376.76 243.251 377.546 244.436L376.151 245.345C375.636 244.625 375.305 243.813 375.158 242.912C375.008 242.023 375.044 241.088 375.267 240.108Z" fill="white"/>
<path d="M371.254 260.276L369.731 259.783L372.61 250.893L384.86 254.86L382.061 263.505L380.538 263.012L382.771 256.117L379.008 254.899L377.019 261.041L375.532 260.559L377.521 254.417L373.566 253.136L371.254 260.276Z" fill="white"/>
<path d="M374.668 277.724L377.219 271.613L366.807 267.285L367.509 265.605L379.391 270.566L376.138 278.357L374.668 277.724Z" fill="white"/>
<path d="M357.505 290.259L353.6 288.201L354.398 286.688L356.887 288L361.827 278.627L359.346 277.298L360.144 275.785L364.041 277.86L363.749 278.413C363.415 279.152 363.713 279.954 364.644 280.818C365.585 281.689 367.031 282.68 368.982 283.791L372.583 285.835L368.364 293.841L358.389 288.583L357.505 290.259ZM368.081 285.146C366.504 284.245 365.244 283.415 364.3 282.654C363.351 281.904 362.793 281.201 362.626 280.545L359.238 286.972L367.797 291.484L370.43 286.488L368.081 285.146Z" fill="white"/>
<path d="M351.097 303.31L354.867 297.6L352.962 294.644L354.006 293.063L361.538 305.024L360.534 306.543L346.566 304.33L347.63 302.718L351.097 303.31ZM352.68 303.583L359.475 304.742L355.741 298.948L352.68 303.583Z" fill="white"/>
<path d="M340.055 332.41L330.449 323.836L331.649 322.491L340.062 329.999L345.034 324.427L336.622 316.92L337.834 315.561L347.441 324.134L340.055 332.41Z" fill="white"/>
<path d="M330.52 341.717C329.297 342.851 328.064 343.45 326.82 343.516C325.577 343.581 324.48 343.101 323.53 342.075C322.58 341.05 322.185 339.92 322.345 338.685C322.505 337.45 323.196 336.266 324.42 335.133L326.754 332.97L324.104 330.109L325.453 328.859L334.204 338.305L330.52 341.717ZM325.548 336.269C324.693 337.061 324.208 337.845 324.091 338.622C323.983 339.407 324.246 340.142 324.879 340.825C325.513 341.509 326.221 341.822 327.004 341.765C327.796 341.718 328.619 341.298 329.473 340.506L331.767 338.381L327.842 334.144L325.548 336.269Z" fill="white"/>
<path d="M308.682 347.298L314.112 343.134L313.277 339.718L314.781 338.565L317.988 352.331L316.543 353.439L304.066 346.78L305.599 345.605L308.682 347.298ZM310.088 348.074L316.131 351.391L314.496 344.694L310.088 348.074Z" fill="white"/>
<path d="M297.621 358.982C296.82 359.228 296.079 359.24 295.401 359.017C294.729 358.804 294.189 358.376 293.782 357.734C293.376 357.091 293.225 356.395 293.331 355.646C293.433 354.914 293.744 354.201 294.264 353.509C294.78 352.834 295.437 352.244 296.235 351.739C296.96 351.279 297.749 350.932 298.601 350.697C299.454 350.462 300.313 350.375 301.179 350.436L301.364 351.93C300.651 351.859 299.94 351.917 299.232 352.105C298.523 352.292 297.868 352.576 297.267 352.957C296.397 353.508 295.782 354.152 295.421 354.889C295.067 355.636 295.093 356.33 295.5 356.973C295.847 357.522 296.336 357.8 296.965 357.808C297.601 357.826 298.323 357.58 299.131 357.068L301.555 355.532L302.352 356.791L300.037 358.258C299.343 358.697 298.893 359.178 298.686 359.701C298.476 360.24 298.532 360.764 298.854 361.271C299.215 361.841 299.754 362.131 300.471 362.141C301.189 362.151 301.936 361.91 302.713 361.418C303.221 361.096 303.693 360.696 304.13 360.216C304.556 359.743 304.91 359.214 305.192 358.628L306.497 359.588C306.145 360.246 305.712 360.847 305.199 361.389C304.686 361.932 304.124 362.397 303.513 362.784C302.747 363.269 301.967 363.596 301.173 363.765C300.38 363.933 299.653 363.908 298.991 363.688C298.319 363.475 297.789 363.063 297.402 362.452C297.055 361.903 296.905 361.323 296.953 360.711C296.991 360.107 297.214 359.53 297.621 358.982Z" fill="white"/>
<path d="M276.327 364.788L274.315 360.858L275.838 360.079L277.121 362.584L286.551 357.755L285.285 355.241L286.808 354.462L288.803 358.399L288.247 358.684C287.549 359.097 287.332 359.924 287.596 361.167C287.866 362.42 288.479 364.062 289.437 366.093L291.208 369.836L283.153 373.961L278.014 363.924L276.327 364.788ZM287.92 366.684C287.148 365.04 286.594 363.636 286.259 362.471C285.914 361.312 285.861 360.416 286.102 359.783L279.635 363.094L284.045 371.706L289.071 369.132L287.92 366.684Z" fill="white"/>
<path d="M264.577 381.757L259.886 369.766L261.599 369.096L263.69 374.44L270.576 371.746L268.485 366.402L270.198 365.731L274.89 377.722L273.177 378.392L271.159 373.236L264.273 375.931L266.29 381.087L264.577 381.757Z" fill="white"/>
<path d="M256.613 384.432L254.859 384.92L252.201 375.349L247.521 386.957L245.891 387.41L242.445 375.004L244.182 374.521L246.835 384.074L251.537 372.479L253.168 372.026L256.613 384.432Z" fill="white"/>
<path d="M231.491 383.027L234.136 382.562L233.154 376.982L234.929 376.67L237.161 389.351L235.385 389.664L234.416 384.156L231.735 384.628L228.719 390.837L226.78 391.178L230.229 384.239L224.331 378.535L226.397 378.171L231.491 383.027Z" fill="white"/>
<path d="M209.778 383.273C210.243 383.247 210.65 383.383 210.999 383.682C211.335 383.982 211.518 384.377 211.546 384.866C211.573 385.331 211.431 385.733 211.118 386.07C210.807 386.42 210.425 386.608 209.972 386.634C209.519 386.66 209.124 386.517 208.786 386.205C208.437 385.906 208.249 385.524 208.223 385.059C208.194 384.569 208.336 384.155 208.648 383.818C208.948 383.481 209.325 383.3 209.778 383.273Z" fill="white"/>
</svg>
