<svg width="44" height="43" viewBox="0 0 44 43" fill="none" xmlns="http://www.w3.org/2000/svg">
<path d="M28.4894 8.66095H14.926C11.6577 8.66095 8.8797 11.2756 8.8797 14.7073V28.1072C8.8797 31.3755 11.6577 34.1536 14.926 34.1536H28.4894C31.7577 34.1536 34.5357 31.5389 34.5357 28.1072V14.5439C34.5357 11.2756 31.9211 8.66095 28.4894 8.66095ZM21.626 29.4146C17.0504 29.4146 13.4553 25.8194 13.4553 21.4073C13.4553 16.9951 17.0504 13.4 21.626 13.4C26.2016 13.4 29.7967 16.9951 29.7967 21.4073C29.9601 25.8194 26.2016 29.4146 21.626 29.4146ZM30.1235 14.7073C29.1431 14.7073 28.326 13.8902 28.326 12.9097C28.326 11.9292 29.1431 10.9487 30.287 10.9487C31.2674 10.9487 32.2479 11.7658 32.2479 12.9097C32.0845 13.8902 31.2674 14.7073 30.1235 14.7073ZM21.626 16.0146C18.6846 16.0146 16.3968 18.3024 16.3968 21.2438C16.3968 24.1853 18.848 26.4731 21.626 26.4731C24.404 26.4731 26.8553 24.1853 26.8553 21.2438C27.0187 18.4658 24.5675 16.0146 21.626 16.0146ZM33.3918 0H10.0236C4.63093 0 0.21875 4.24877 0.21875 9.64144V32.8462C0.21875 38.0755 4.63093 42.4877 10.0236 42.4877H33.5552C38.9479 42.4877 43.3601 38.2389 43.3601 32.8462V9.64144C43.1967 4.24877 38.7845 0 33.3918 0ZM37.4772 27.7804C37.4772 32.6828 33.3918 36.7682 28.326 36.7682H14.926C9.86019 36.7682 5.77483 32.6828 5.77483 27.7804V14.5439C5.77483 9.64144 9.86019 5.55608 14.926 5.55608H28.326C33.3918 5.55608 37.4772 9.64144 37.4772 14.5439V27.7804Z" fill="white"/>
</svg>
