<svg width="43" height="43" viewBox="0 0 43 43" fill="none" xmlns="http://www.w3.org/2000/svg">
<path d="M36.2779 0H6.53657C2.94145 0 0 2.94145 0 6.53657V35.9511C0 39.5462 2.94145 42.4877 6.53657 42.4877H36.2779C39.8731 42.4877 42.8145 39.5462 42.8145 35.9511V6.53657C42.9779 2.94145 40.0365 0 36.2779 0ZM33.0097 24.6755C35.2975 26.7999 35.7877 27.9438 35.9511 27.9438C36.9316 29.578 34.8072 29.7414 34.8072 29.7414H30.8853C30.8853 29.7414 30.0682 29.9048 28.9243 29.0877C27.4536 28.1072 26.1463 25.4926 25.0024 25.8194C23.8585 26.1463 24.0219 28.4341 24.0219 28.4341C24.0219 28.4341 24.0219 28.9243 23.8585 29.2511C23.5316 29.578 23.0414 29.578 23.0414 29.578H21.2438C21.2438 29.578 17.3219 29.7414 13.8902 26.3097C10.1317 22.5512 6.86339 14.8707 6.86339 14.8707C6.86339 14.8707 6.69998 14.3804 6.86339 14.0536C7.02681 13.7268 7.68046 13.7268 7.68046 13.7268H11.9292C11.9292 13.7268 12.2561 13.7268 12.5829 14.0536C12.7463 14.3804 12.9097 14.7073 12.9097 14.7073C12.9097 14.7073 13.5634 16.3414 14.5439 17.9756C16.3414 20.917 17.1585 21.5707 17.6487 21.2438C18.4658 20.7536 18.3024 16.9951 18.3024 16.9951C18.3024 16.9951 18.3024 15.6878 17.8121 15.0341C17.4853 14.5439 16.8317 14.3804 16.5048 14.3804C16.3414 14.3804 16.6682 13.7268 17.1585 13.5634C17.9756 13.2365 19.2829 13.2365 20.7536 13.2365C22.0609 13.2365 22.3877 13.4 22.878 13.4C24.3487 13.7268 23.8585 15.0341 23.8585 18.3024C23.8585 19.2829 23.6951 20.7536 24.3487 21.2438C24.6755 21.4073 25.4926 21.2438 27.4536 17.9756C28.4341 16.3414 29.0877 14.5439 29.0877 14.5439C29.0877 14.5439 29.2511 14.217 29.4145 14.0536C29.578 13.8902 29.9048 13.8902 29.9048 13.8902H34.317C34.317 13.8902 35.6243 13.7268 35.7877 14.3804C35.9511 15.0341 35.2975 16.5048 33.4999 18.7926C30.8853 22.878 30.5584 22.3877 33.0097 24.6755Z" fill="white"/>
</svg>
