<svg width="100" height="99" viewBox="0 0 100 99" fill="none" xmlns="http://www.w3.org/2000/svg">
<g clip-path="url(#clip0_1_367)">
<path d="M16.4341 18.3441C16.7409 18.6543 17.1625 18.8275 17.6011 18.8227C17.8233 18.8275 18.0447 18.7888 18.2514 18.7074C18.6518 18.531 18.9724 18.2136 19.1514 17.8164C19.2328 17.6117 19.2727 17.3934 19.2678 17.1726C19.2719 16.7392 19.0977 16.3219 18.7844 16.0181C18.6322 15.8642 18.4507 15.741 18.2514 15.6548C17.9429 15.5412 17.6101 15.5065 17.2846 15.5557C17.1845 15.5887 17.0681 15.6217 16.968 15.6548C16.8679 15.6878 16.7678 15.7539 16.684 15.8038C16.5074 15.9343 16.3503 16.0906 16.2177 16.2655C16.168 16.3476 16.1176 16.4467 16.0679 16.5458C16.0175 16.6449 16.0012 16.7601 15.9678 16.8592C15.954 16.9632 15.9483 17.0679 15.9507 17.1726C15.9459 17.3934 15.9857 17.6117 16.0679 17.8164C16.1542 18.0146 16.2787 18.1934 16.4341 18.3441Z" fill="white"/>
<path d="M12.9005 19.5172C12.4106 19.9812 12.2641 20.6991 12.5335 21.3154C12.614 21.516 12.7394 21.6965 12.9005 21.8431C13.2097 22.1613 13.637 22.3402 14.0838 22.3386C14.301 22.3346 14.5159 22.2894 14.7169 22.2065C14.9195 22.1267 15.1018 22.0026 15.2499 21.8431C15.4054 21.6924 15.5299 21.5128 15.617 21.3154C15.8603 20.6966 15.7171 19.9941 15.2499 19.5172C14.5916 18.8976 13.5588 18.8976 12.9005 19.5172Z" fill="white"/>
<path d="M11.7163 23.0138C11.4086 22.6988 10.9847 22.5208 10.542 22.5208C10.0984 22.5208 9.67444 22.6988 9.36682 23.0138C9.20162 23.1637 9.07629 23.3506 8.9998 23.5584C8.91435 23.7566 8.86959 23.9701 8.86633 24.1853C8.87122 24.626 9.05107 25.0465 9.36682 25.3567C9.68095 25.6564 10.0976 25.8272 10.533 25.8353C10.9749 25.832 11.3989 25.6612 11.7163 25.3567C12.0271 25.0449 12.2013 24.6235 12.1997 24.1853C12.2029 23.9709 12.1639 23.7583 12.0833 23.5584C12.0011 23.3538 11.8758 23.1685 11.7163 23.0138Z" fill="white"/>
<path d="M17.6001 25.8353C17.8231 25.8328 18.0437 25.7885 18.2504 25.7039C18.4489 25.6234 18.6304 25.5057 18.7834 25.3567C19.0943 25.0449 19.2676 24.6235 19.2668 24.1853C19.2701 23.9709 19.2302 23.7583 19.1504 23.5584C19.0674 23.3538 18.9429 23.1685 18.7834 23.0138C18.475 22.6988 18.051 22.5208 17.6083 22.5208C17.1656 22.5208 16.7416 22.6988 16.4331 23.0138C16.2736 23.1685 16.1491 23.3538 16.0669 23.5584C15.9815 23.7566 15.9359 23.9701 15.9335 24.1853C15.94 25.094 16.6822 25.8296 17.6001 25.8353Z" fill="white"/>
<path d="M15.2497 26.512C14.5881 25.9013 13.5619 25.9013 12.9003 26.512C12.7351 26.6618 12.6098 26.8487 12.5333 27.0566C12.4478 27.2548 12.4023 27.4683 12.3998 27.6834C12.3957 28.3537 12.8018 28.9596 13.4276 29.2174C14.0526 29.4744 14.7729 29.331 15.2497 28.8548C15.5606 28.5431 15.7348 28.1217 15.7331 27.6834C15.7364 27.4691 15.6965 27.2556 15.6168 27.0566C15.5346 26.852 15.4093 26.6659 15.2497 26.512Z" fill="white"/>
<path d="M21.1491 15.3261C21.3655 15.3293 21.5812 15.2898 21.7822 15.2101C21.9824 15.1247 22.1631 15.0014 22.3161 14.8475C22.4764 14.7009 22.6017 14.5204 22.6823 14.319C22.7661 14.1208 22.8117 13.9081 22.8157 13.6922C22.8174 13.2507 22.6367 12.8277 22.3161 12.5208C22.1679 12.362 21.9857 12.238 21.7822 12.1574C21.158 11.9133 20.4459 12.0551 19.9658 12.5208C19.6492 12.8293 19.4751 13.2531 19.4824 13.6922C19.4824 14.1281 19.659 14.5462 19.9715 14.8532C20.2848 15.1601 20.7088 15.3301 21.1491 15.3261Z" fill="white"/>
<path d="M24.0493 11.7124C24.2503 11.7914 24.466 11.8308 24.6824 11.8276C25.1252 11.8284 25.5508 11.6568 25.8657 11.3491C26.1725 11.034 26.3459 10.6151 26.3491 10.1776C26.3402 9.74579 26.1676 9.33329 25.8657 9.0223C25.3839 8.55985 24.6743 8.41805 24.0493 8.65975C23.8385 8.73468 23.6505 8.85956 23.4992 9.0223C23.3437 9.17377 23.2192 9.35262 23.1321 9.55082C23.0524 9.74982 23.0125 9.96332 23.0158 10.1776C23.0076 10.6167 23.1826 11.0405 23.4992 11.3491C23.6546 11.507 23.8418 11.6302 24.0493 11.7124Z" fill="white"/>
<path d="M11.7163 9.00548C11.2337 8.54383 10.5216 8.40848 9.89986 8.65904C9.48157 8.8089 9.15116 9.13519 8.9998 9.55011C8.91435 9.7483 8.86959 9.961 8.86633 10.1769C8.86959 10.6144 9.04293 11.0333 9.34973 11.3484C9.51575 11.4934 9.70048 11.6158 9.89986 11.7117C10.1017 11.7907 10.3165 11.8301 10.533 11.8269C10.6453 11.8326 10.7576 11.8213 10.8667 11.7939C10.9684 11.7737 11.0693 11.7464 11.167 11.7117C11.2703 11.6626 11.3704 11.6078 11.4664 11.5465C11.5543 11.4853 11.6373 11.4193 11.7163 11.3484C11.7887 11.2702 11.8554 11.1872 11.9165 11.101C11.9783 11.0051 12.0345 10.906 12.0833 10.8037C12.1191 10.707 12.1468 10.6079 12.1663 10.5064C12.194 10.3993 12.2054 10.2881 12.1997 10.1769C12.2029 9.96261 12.1639 9.74911 12.0833 9.55011C11.9865 9.35272 11.8636 9.16984 11.7163 9.00548Z" fill="white"/>
<path d="M15.2498 5.50682L15 5.30863C14.8169 5.191 14.6134 5.10721 14.4002 5.06129C14.0755 4.99442 13.7378 5.02906 13.4334 5.16038C13.2341 5.24015 13.0534 5.35777 12.9004 5.50682C12.5879 5.81942 12.4089 6.23917 12.3999 6.67826C12.4032 6.78863 12.4137 6.89901 12.4333 7.00858L12.5334 7.30506C12.5765 7.40738 12.627 7.50648 12.6831 7.60235C12.7507 7.68856 12.8231 7.77154 12.9004 7.84969C13.0534 7.99874 13.2341 8.11637 13.4334 8.19613C13.6312 8.28878 13.8477 8.3339 14.0666 8.32826C14.1781 8.32584 14.2896 8.31456 14.4002 8.29523C14.6134 8.2493 14.8169 8.16551 15 8.04789C15.0871 7.98666 15.1709 7.92059 15.2498 7.84969C15.3263 7.77557 15.3939 7.69259 15.45 7.60235C15.5119 7.50729 15.5672 7.40738 15.6169 7.30506C15.6519 7.20838 15.6803 7.10929 15.6999 7.00858C15.7275 6.90062 15.7389 6.78944 15.7332 6.67826C15.7365 6.46395 15.6966 6.25045 15.6169 6.05145C15.5257 5.85084 15.402 5.66715 15.2498 5.50682Z" fill="white"/>
<path d="M8.18355 12.5203C8.1038 12.4446 8.02079 12.3729 7.9329 12.306C7.83687 12.2496 7.73678 12.2005 7.63342 12.157L7.33313 12.0587C7.00842 11.991 6.67069 12.0256 6.36633 12.157C6.16044 12.2408 5.97327 12.364 5.81702 12.5203C5.51428 12.8313 5.34176 13.2438 5.33362 13.6756C5.33606 13.786 5.34745 13.8964 5.36698 14.0052C5.41337 14.2171 5.49801 14.4177 5.61682 14.5997L5.81702 14.8471C5.97815 14.9977 6.1637 15.1202 6.36633 15.2096C6.56816 15.2894 6.783 15.3289 7.00028 15.3256C7.11178 15.3305 7.22408 15.32 7.33313 15.2926C7.43567 15.2725 7.53577 15.2451 7.63342 15.2096C7.73678 15.1613 7.83687 15.1065 7.9329 15.0445C8.02486 14.9889 8.10868 14.9228 8.18355 14.8471C8.25517 14.7681 8.3219 14.686 8.38293 14.5997C8.50256 14.4177 8.5872 14.2171 8.63359 14.0052C8.6523 13.8964 8.6637 13.786 8.66695 13.6756C8.67265 13.4589 8.62707 13.2438 8.53349 13.048C8.45211 12.8515 8.33329 12.6718 8.18355 12.5203Z" fill="white"/>
<path d="M15.2498 12.5208C15.1709 12.445 15.0871 12.3733 15 12.3065C14.9089 12.2501 14.8145 12.2009 14.7168 12.1574C14.6167 12.1252 14.5003 12.0922 14.4002 12.0591C14.0755 11.9923 13.7378 12.0269 13.4334 12.1574C13.0322 12.3347 12.7116 12.6521 12.5334 13.0485C12.4479 13.2475 12.4023 13.4602 12.3999 13.6761C12.4032 13.7865 12.4137 13.8968 12.4333 14.0056C12.4666 14.1047 12.5 14.2199 12.5334 14.319C12.5765 14.4165 12.627 14.5099 12.6831 14.6002C12.7507 14.6864 12.8231 14.7686 12.9004 14.8475C13.0526 15.0014 13.2332 15.1247 13.4334 15.2101C13.6344 15.2898 13.8501 15.3293 14.0666 15.3261C14.1789 15.3309 14.2912 15.3204 14.4002 15.2931C14.5077 15.2729 14.6134 15.2455 14.7168 15.2101C14.8145 15.1617 14.9097 15.1061 15 15.0449C15.1815 14.9313 15.3353 14.7798 15.45 14.6002C15.5119 14.5099 15.5672 14.4165 15.6169 14.319C15.6519 14.2167 15.6803 14.1119 15.6999 14.0056C15.7275 13.8976 15.7389 13.7865 15.7332 13.6761C15.7365 13.461 15.6966 13.2483 15.6169 13.0485C15.5298 12.8511 15.4053 12.6714 15.2498 12.5208Z" fill="white"/>
<path d="M16.0679 10.8207C16.1176 10.919 16.168 11.002 16.2177 11.1011C16.2852 11.1873 16.3576 11.2703 16.4341 11.3484C16.5058 11.4282 16.5904 11.4951 16.684 11.5466C16.7727 11.6111 16.8679 11.6667 16.968 11.7118C17.0713 11.7464 17.1771 11.7738 17.2846 11.794C17.3879 11.8213 17.4945 11.8326 17.6011 11.827C18.0447 11.831 18.4711 11.6586 18.7844 11.3484C19.101 11.0399 19.2751 10.6161 19.2678 10.177C19.2735 10.0714 19.2621 9.9659 19.2344 9.86358C19.2165 9.75643 19.1889 9.65169 19.1514 9.55018C19.0603 9.34957 18.9366 9.16507 18.7844 9.00555C18.6314 8.8565 18.4499 8.73888 18.2514 8.65912C17.947 8.5286 17.6093 8.49396 17.2846 8.56002C17.1747 8.57774 17.0681 8.61078 16.968 8.65912C16.8655 8.69134 16.7694 8.7421 16.684 8.80736C16.601 8.87342 16.5009 8.93949 16.4341 9.00555C16.1233 9.31734 15.9499 9.73871 15.9507 10.177C15.9483 10.2874 15.954 10.3977 15.9678 10.5065C16.0012 10.6056 16.0346 10.7216 16.0679 10.8207Z" fill="white"/>
<path d="M19.9659 7.85072C20.0375 7.93048 20.1221 7.99735 20.2157 8.04891C20.3069 8.11014 20.4013 8.16492 20.4989 8.21407C20.6023 8.24871 20.7081 8.27691 20.8163 8.29625C20.9245 8.32364 21.0368 8.33492 21.1492 8.32928C21.5878 8.33331 22.0093 8.1609 22.3161 7.85072C22.4805 7.70086 22.6067 7.51475 22.6824 7.30609C22.7678 7.10789 22.8134 6.8952 22.8158 6.67928C22.8109 6.23939 22.6311 5.81803 22.3161 5.50784C22.1623 5.3588 21.9817 5.24117 21.7823 5.16141C21.4787 5.02928 21.141 4.99464 20.8163 5.06231C20.6023 5.10824 20.3988 5.19202 20.2157 5.30965C20.1327 5.37572 20.0326 5.44178 19.9659 5.50784C19.655 5.81964 19.4817 6.241 19.4825 6.67928C19.4792 6.89359 19.5191 7.10709 19.5989 7.30609C19.6819 7.51153 19.8064 7.69683 19.9659 7.85072Z" fill="white"/>
<path d="M12.0833 16.546C12.0377 16.4469 11.9816 16.3535 11.9165 16.2657C11.8644 16.1722 11.7968 16.0884 11.7163 16.0183C11.6373 15.9418 11.5543 15.8701 11.4664 15.804C11.3663 15.7541 11.2833 15.7049 11.1832 15.655C11.0831 15.6058 10.9668 15.5889 10.8667 15.5559C10.3157 15.4616 9.75256 15.6332 9.34973 16.0183C9.283 16.0844 9.21627 16.1835 9.15035 16.2657C9.08362 16.3495 9.03316 16.4445 8.9998 16.546C8.95178 16.6451 8.91842 16.7507 8.8997 16.8594C8.88098 16.9634 8.86959 17.0681 8.86633 17.1728C8.86715 17.3944 8.91272 17.6127 8.9998 17.8166C9.08036 18.014 9.19999 18.1928 9.34973 18.3443C9.51168 18.4949 9.69723 18.6182 9.89986 18.7076C10.0024 18.7447 10.109 18.7721 10.2164 18.7898C10.3198 18.8172 10.4264 18.8285 10.533 18.8228C10.9773 18.8309 11.4054 18.6577 11.7163 18.3443C12.0304 18.0341 12.2045 17.6119 12.1997 17.1728C12.2054 17.0673 12.194 16.9618 12.1663 16.8594C12.1468 16.7531 12.1191 16.6484 12.0833 16.546Z" fill="white"/>
<path d="M8.54976 20.0435C8.50094 19.9468 8.44478 19.8525 8.38293 19.7631C8.33166 19.6696 8.26412 19.5858 8.18355 19.5157C8.0273 19.3578 7.84013 19.2338 7.63342 19.1524C7.00842 18.9075 6.29635 19.0501 5.81702 19.5157C5.75028 19.581 5.68355 19.6801 5.61682 19.7631C5.49801 19.9444 5.41337 20.1458 5.36698 20.3569C5.34745 20.4656 5.33606 20.576 5.33362 20.6872C5.34176 21.1182 5.51428 21.5307 5.81702 21.8417C6.13033 22.1543 6.55514 22.3324 7.00028 22.3372C7.21757 22.334 7.43323 22.2897 7.63342 22.2051C7.84338 22.1293 8.03219 22.0053 8.18355 21.8417C8.49605 21.538 8.67102 21.1206 8.66695 20.6872C8.67183 20.576 8.66125 20.4648 8.63358 20.3569C8.61324 20.2505 8.58557 20.1458 8.54976 20.0435Z" fill="white"/>
<path d="M21.1506 22.3378C21.3687 22.3346 21.5836 22.2903 21.7838 22.2057C22.185 22.0284 22.5056 21.711 22.6838 21.3146C22.7693 21.1164 22.8149 20.9029 22.8173 20.6878C22.8189 20.2455 22.6383 19.8225 22.3176 19.5164C21.9237 19.1296 21.3614 18.9629 20.8178 19.0708C20.7096 19.0902 20.6038 19.1175 20.5004 19.153C20.4011 19.2021 20.3173 19.2521 20.2172 19.3012C20.0406 19.4326 19.8835 19.5881 19.7509 19.7637C19.7004 19.8628 19.6508 19.945 19.6003 20.0441C19.5654 20.1464 19.5377 20.2511 19.5173 20.3575C19.4897 20.4654 19.4783 20.5766 19.484 20.6878C19.4799 21.1212 19.6541 21.5386 19.9674 21.8423C20.2774 22.1605 20.7047 22.3394 21.1506 22.3378Z" fill="white"/>
<path d="M23.4987 18.3446C23.6541 18.5026 23.8413 18.6266 24.0488 18.708C24.2498 18.7878 24.4655 18.8264 24.682 18.8232C25.1247 18.8248 25.5503 18.6532 25.8652 18.3446C26.0158 18.1932 26.1346 18.0143 26.2152 17.8169C26.3006 17.6131 26.3462 17.3948 26.3486 17.1732C26.3454 16.7414 26.172 16.3264 25.8652 16.0187C25.3835 15.5554 24.6738 15.4136 24.0488 15.6553C23.8413 15.7367 23.6541 15.8608 23.4987 16.0187C23.1854 16.3224 23.0112 16.7398 23.0153 17.1732C23.0104 17.394 23.0503 17.6123 23.1317 17.8169C23.2187 18.0151 23.3433 18.194 23.4987 18.3446Z" fill="white"/>
<path d="M27.5814 15.2089C27.7832 15.2887 27.9981 15.3282 28.2154 15.3249C28.8851 15.3217 29.4882 14.9221 29.7461 14.3106C30.0041 13.6983 29.8674 12.9934 29.3986 12.5196C28.9169 12.0572 28.2072 11.9154 27.5814 12.1563C27.3715 12.232 27.1827 12.3569 27.0321 12.5196C26.3859 13.1633 26.3859 14.2027 27.0321 14.8464C27.1875 15.0043 27.3747 15.1276 27.5814 15.2089Z" fill="white"/>
<path d="M98.9393 95.4882L91.3034 91.7459C88.4551 90.3634 86.6542 87.492 86.6664 84.3523V83.0455C86.6623 78.898 84.4187 75.0694 80.7834 73.0086L71.7746 67.9167C72.4672 66.1008 72.0245 64.052 70.641 62.6759L69.426 61.473C70.9747 59.5862 70.9039 56.8638 69.26 55.0584L41.1195 24.2393L43.5349 21.8481C43.8474 21.5387 44.0232 21.1189 44.0232 20.6807C44.0232 20.2432 43.8474 19.8234 43.5349 19.5141L38.8213 14.8477C38.5088 14.5383 38.0848 14.3643 37.643 14.3643C37.3207 14.3731 37.0074 14.477 36.7445 14.6624C34.8809 5.78313 26.6827 -0.371339 17.5437 0.248216C8.40467 0.866966 1.12928 8.0688 0.504279 17.1172C-0.120721 26.1648 6.09591 34.2811 15.0648 36.1261C14.8777 36.3863 14.7727 36.6957 14.7629 37.0155C14.7629 37.453 14.9387 37.8727 15.2512 38.1821L19.9647 42.8477C20.2772 43.1579 20.7012 43.3319 21.1439 43.3319C21.5866 43.3319 22.0106 43.1579 22.3231 42.8477L24.736 40.4573L55.8746 68.3204C57.6918 69.9631 60.453 70.034 62.3532 68.4855L63.5699 69.69C65.1535 71.2691 67.6137 71.593 69.5595 70.4788L79.1314 75.8896C81.7242 77.3583 83.3265 80.0871 83.3331 83.0455V84.3523C83.3168 88.7504 85.842 92.7707 89.8329 94.7027L97.4696 98.445C97.6991 98.5554 97.9514 98.6117 98.2061 98.6093C98.9865 98.6166 99.6669 98.0881 99.8443 97.3364C100.023 96.5847 99.6498 95.8113 98.9483 95.4745L98.9393 95.4882ZM8.18006 7.84643C12.3622 3.70532 18.613 2.38484 24.1387 4.47473C29.6644 6.56382 33.434 11.6733 33.7627 17.5208L32.9294 18.3458C33.4901 17.7891 33.5764 16.919 33.1353 16.2648C32.695 15.6114 31.8503 15.356 31.1163 15.6541C30.9136 15.7444 30.7281 15.8668 30.5661 16.0175C30.2601 16.3252 30.0868 16.7402 30.0827 17.172C30.0852 17.2832 30.0966 17.3936 30.1161 17.5023C30.1348 17.6111 30.1682 17.7166 30.2162 17.8157C30.2496 17.9172 30.3 18.0123 30.3667 18.0961C30.4245 18.1847 30.4921 18.2677 30.5661 18.3434C30.8819 18.6528 31.3059 18.8301 31.7494 18.8389C32.1929 18.8325 32.6153 18.6544 32.9278 18.3434L29.4016 21.8352C29.7076 21.5266 29.8801 21.1125 29.8833 20.6799C29.8793 20.4591 29.8337 20.2416 29.7499 20.0369C29.6693 19.8396 29.5497 19.6607 29.4 19.5084C28.9182 19.046 28.2085 18.9042 27.5827 19.1459C27.376 19.2272 27.1888 19.3513 27.0334 19.5084C26.8829 19.6607 26.764 19.8396 26.6827 20.0369C26.5988 20.2416 26.5541 20.4591 26.55 20.6799C26.5533 21.1125 26.7266 21.5266 27.0334 21.8352C27.184 21.9979 27.3728 22.1228 27.5827 22.1985C27.7837 22.2831 27.9986 22.3274 28.2167 22.3299C28.6602 22.3242 29.0834 22.147 29.3967 21.8352L25.8965 25.3003C26.1773 24.9934 26.3376 24.5962 26.3466 24.1813C26.3441 23.9662 26.2985 23.7527 26.2131 23.5545C26.1366 23.3506 26.017 23.1653 25.8632 23.0098C25.6971 22.8648 25.5124 22.7424 25.313 22.6473C24.9069 22.4821 24.452 22.4821 24.0468 22.6473C23.6309 22.8165 23.3005 23.1428 23.1296 23.5545C22.9742 23.9581 22.9742 24.4044 23.1296 24.8089C23.2264 25.0055 23.3493 25.1892 23.4966 25.3527C23.6529 25.5058 23.8401 25.6234 24.0468 25.6991C24.247 25.7837 24.4618 25.8289 24.6799 25.8313C25.0982 25.8224 25.4994 25.6645 25.8095 25.3857L22.3101 28.8509C22.6242 28.5415 22.8041 28.1218 22.8098 27.6827C22.8073 27.4676 22.7618 27.2541 22.6763 27.0559C22.5998 26.848 22.4745 26.6611 22.3101 26.5113C21.655 25.882 20.6141 25.882 19.9598 26.5113C19.8003 26.6651 19.6758 26.8512 19.5928 27.0559C19.5131 27.2549 19.4732 27.4684 19.4764 27.6827C19.4748 28.121 19.649 28.5423 19.9598 28.8541C20.1128 29.0032 20.2943 29.1208 20.4929 29.2006C20.6996 29.2844 20.9201 29.3287 21.1431 29.3327C21.5801 29.3303 21.9984 29.1595 22.3101 28.8557L18.7831 32.3475C19.0972 32.0381 19.2763 31.6192 19.2828 31.1809C19.2746 30.741 19.0956 30.322 18.7831 30.0094C18.7066 29.9353 18.6228 29.8693 18.5332 29.8113C18.4478 29.746 18.3518 29.696 18.25 29.663C18.1491 29.6147 18.0425 29.5816 17.9327 29.5639C17.3899 29.4632 16.8308 29.6292 16.4328 30.0094C16.2806 30.169 16.1569 30.3535 16.0666 30.5541C15.9812 30.7523 15.9356 30.965 15.9332 31.1809C15.9299 31.8496 16.3344 32.4538 16.9577 32.7116C17.5819 32.9687 18.3005 32.8285 18.7782 32.3555L17.9449 33.1805C12.0367 32.8542 6.87472 29.1208 4.76535 23.6479C2.65597 18.175 3.99305 11.9859 8.18006 7.84643ZM21.1447 39.3487L18.7863 37.0155L37.643 18.3475L39.9997 20.6815L37.643 23.0131L21.1447 39.3487ZM58.1101 65.872L27.0961 38.1209L38.7627 26.5709L66.7917 57.2772C67.3866 57.9297 67.3614 58.9296 66.7331 59.5507L60.4001 65.8212C59.771 66.4367 58.766 66.4593 58.1101 65.872ZM65.9266 67.3568L64.7483 66.1902L67.1067 63.8554L68.2834 65.022C68.9345 65.6665 68.9345 66.7115 68.2842 67.356C67.6332 68.0013 66.5777 68.0013 65.9266 67.3568Z" fill="white"/>
<path d="M99.3066 6.66059C98.8728 6.35041 98.3146 6.26581 97.8068 6.43258L77.8068 13.0326C77.1256 13.2574 76.6666 13.8882 76.6666 14.5988V28.7156C75.6575 28.1219 74.5068 27.8052 73.3333 27.7988C69.6517 27.7988 66.6666 30.7532 66.6666 34.3988C66.6666 38.0436 69.6517 40.9988 73.3333 40.9988C77.0149 40.9988 80 38.0436 80 34.3988V15.788L96.6666 10.2869V22.1156C95.6575 21.5219 94.5068 21.2052 93.3333 21.1988C89.6516 21.1988 86.6666 24.1532 86.6666 27.7988C86.6666 31.4436 89.6516 34.3988 93.3333 34.3988C97.0149 34.3988 100 31.4436 100 27.7988V7.99879C100 7.46786 99.7412 6.96996 99.3066 6.66059ZM73.3333 37.6988C71.4925 37.6988 70 36.2212 70 34.3988C70 32.5756 71.4925 31.0988 73.3333 31.0988C75.1741 31.0988 76.6666 32.5756 76.6666 34.3988C76.6666 36.2212 75.1741 37.6988 73.3333 37.6988ZM93.3333 31.0988C91.4925 31.0988 90 29.6212 90 27.7988C90 25.9756 91.4925 24.4988 93.3333 24.4988C95.1741 24.4988 96.6666 25.9756 96.6666 27.7988C96.6666 29.6212 95.1741 31.0988 93.3333 31.0988Z" fill="white"/>
<path d="M34.5418 60.8627L11.2085 67.4627C10.4932 67.6657 10 68.3126 10 69.049V86.4658C8.99089 85.8721 7.84017 85.5554 6.66667 85.549C2.98503 85.549 0 88.5034 0 92.149C0 95.7938 2.98503 98.749 6.66667 98.749C10.3483 98.749 13.3333 95.7938 13.3333 92.149V76.8962L33.3333 71.2759V79.8658C32.3242 79.2721 31.1735 78.9554 30 78.949C26.3184 78.949 23.3333 81.9034 23.3333 85.549C23.3333 89.1938 26.3184 92.149 30 92.149C33.6816 92.149 36.6667 89.1938 36.6667 85.549V62.449C36.6667 61.931 36.4209 61.4435 36.0034 61.1317C35.5859 60.82 35.0448 60.7209 34.5418 60.8627ZM6.66667 95.449C4.82585 95.449 3.33333 93.9714 3.33333 92.149C3.33333 90.3258 4.82585 88.849 6.66667 88.849C8.50749 88.849 10 90.3258 10 92.149C10 93.9714 8.50749 95.449 6.66667 95.449ZM13.3333 73.4657V70.2929L33.3333 64.6364V67.8478L13.3333 73.4657ZM30 88.849C28.1592 88.849 26.6667 87.3714 26.6667 85.549C26.6667 83.7258 28.1592 82.249 30 82.249C31.8408 82.249 33.3333 83.7258 33.3333 85.549C33.3333 87.3714 31.8408 88.849 30 88.849Z" fill="white"/>
</g>
<defs>
<clipPath id="clip0_1_367">
<rect width="100" height="99" fill="white"/>
</clipPath>
</defs>
</svg>
