<svg width="52" height="41" viewBox="0 0 52 41" fill="none" xmlns="http://www.w3.org/2000/svg">
<path fill-rule="evenodd" clip-rule="evenodd" d="M14.2029 26.6649C14.8668 24.5133 15.6363 22.4678 16.3399 20.3561C11.6763 12.1691 17.4477 2.95245 25.2649 2.18685C32.6456 1.46391 38.697 6.78513 38.7154 14.0473C38.7346 21.71 31.3306 28.1445 23.0022 25.5291C22.374 25.3319 21.5966 24.6891 20.8652 24.6459C19.843 24.5855 18.5033 25.3222 17.4711 25.6553C16.3398 26.0207 15.356 26.3867 14.2029 26.6649ZM21.1166 22.3749C27.8421 26.4718 35.8952 21.8766 36.5784 15.1829C37.1967 9.12332 32.3763 3.73168 25.8934 4.20566C18.4922 4.74664 14.0465 13.6143 18.6025 20.1037C18.1992 21.213 17.8217 22.3484 17.4711 23.5105C18.7059 23.1516 19.8442 22.6959 21.1166 22.3749Z" fill="white"/>
<path fill-rule="evenodd" clip-rule="evenodd" d="M23.7565 8.36947C24.464 9.85474 25.5582 12.0516 23.7565 13.038C24.6715 14.9796 26.1843 16.3211 28.1561 17.2018C28.8119 16.7665 29.2425 16.1051 29.7904 15.5616C30.9349 16.011 32.0048 16.5352 32.9329 17.2018C33.0283 19.3724 31.206 20.1751 29.6646 20.1038C26.4129 19.9537 21.9436 15.8301 20.8653 12.7856C20.2254 10.9792 20.9614 7.52412 23.7565 8.36947Z" fill="white"/>
</svg>
