<svg width="26" height="25" viewBox="0 0 26 25" fill="none" xmlns="http://www.w3.org/2000/svg">
<g clip-path="url(#clip0_2_1421)">
<path d="M13 0C5.832 0 0 5.60721 0 12.5C0 19.3928 5.832 25 13 25C20.168 25 26 19.3928 26 12.5C26 5.60721 20.168 0 13 0ZM20.2475 8.33125L12.2475 16.9851C12.0505 17.1981 11.776 17.3077 11.4995 17.3077C11.28 17.3077 11.0595 17.2385 10.875 17.0971L5.875 13.251C5.444 12.9197 5.374 12.3144 5.719 11.8995C6.0635 11.4846 6.6935 11.4173 7.1245 11.749L11.383 15.0245L18.7525 7.05288C19.1185 6.65577 19.7515 6.62019 20.164 6.97308C20.577 7.32644 20.6145 7.93413 20.2475 8.33125Z" fill="#FF00E5"/>
</g>
<defs>
<clipPath id="clip0_2_1421">
<rect width="26" height="25" fill="white"/>
</clipPath>
</defs>
</svg>
