<svg width="52" height="52" viewBox="0 0 52 52" fill="none" xmlns="http://www.w3.org/2000/svg">
<path d="M20.8276 37.9668C20.0014 37.9668 20.1419 37.6548 19.8569 36.8682L17.4276 28.8733L36.1276 17.7793" fill="#C8DAEA"/>
<path d="M20.8275 37.9673C21.465 37.9673 21.7466 37.6758 22.1025 37.3298L25.5025 34.0237L21.2614 31.4663" fill="#A9C9DD"/>
<path d="M21.2616 31.4666L31.5381 39.059C32.7109 39.706 33.5571 39.3709 33.8492 37.9703L38.0323 18.2582C38.4605 16.5412 37.3778 15.7622 36.2558 16.2715L11.6929 25.7429C10.0163 26.4154 10.0263 27.3509 11.3874 27.7676L17.6907 29.7351L32.2838 20.5285C32.9727 20.1108 33.6051 20.3352 33.0862 20.7959" fill="url(#paint0_linear_1_29)"/>
<defs>
<linearGradient id="paint0_linear_1_29" x1="28.6999" y1="26.2815" x2="32.6795" y2="35.3486" gradientUnits="userSpaceOnUse">
<stop stop-color="#EFF7FC"/>
<stop offset="1" stop-color="white"/>
</linearGradient>
</defs>
</svg>
