<svg width="115" height="114" viewBox="0 0 115 114" fill="none" xmlns="http://www.w3.org/2000/svg">
<path d="M42.288 34.9599V1.89993C42.288 0.851215 41.4293 0 40.3714 0H28.8714C27.8135 0 26.9548 0.851215 26.9548 1.89993V34.9599C19.8287 38.9575 15.4528 46.3599 15.4548 54.549V112.1C15.4548 113.151 16.3135 114 17.3714 114H51.8714C52.9293 114 53.788 113.151 53.788 112.1V54.551C53.7898 46.3599 49.4142 38.9575 42.288 34.9599ZM49.9546 110.2H19.288V54.549C19.2842 47.4106 23.2863 40.9926 29.7281 37.8006C30.3779 37.4775 30.788 36.8202 30.788 36.1001V3.80007H38.4546V36.1001C38.4546 36.8202 38.8647 37.4795 39.5145 37.8006C45.9566 40.9906 49.9566 47.4089 49.9546 54.549V110.2Z" fill="white"/>
<path d="M40.366 9.49951H28.866V13.2996H40.366V9.49951Z" fill="white"/>
<path d="M99.3672 61.4996L95.9363 37.7306C95.8022 36.7959 94.9934 36.1003 94.0388 36.1003H71.0388C70.0862 36.1003 69.2774 36.7957 69.1395 37.7306L65.7106 61.3952C65.3847 63.5612 65.5035 65.733 66.048 67.8115L66.3815 69.2042C68.2406 76.561 74.8839 81.6986 82.5352 81.7006C82.5466 81.7006 82.5543 81.7006 82.5639 81.7006C90.1654 81.7006 96.7972 76.6086 98.7024 69.2746L99.0166 67.9484C99.5743 65.8279 99.6911 63.6543 99.3672 61.4996ZM95.2982 67.0324L94.9819 68.3623C93.5215 73.9806 88.4173 77.9003 82.5639 77.9003C82.5543 77.9003 82.5466 77.9003 82.539 77.9003C76.6471 77.9003 71.5316 73.9446 70.1075 68.3053L69.7702 66.8955C69.3428 65.2748 69.2547 63.6122 69.5056 61.9461L72.6989 39.9004H92.3773L95.5762 62.0487C95.8253 63.7055 95.7371 65.3681 95.2982 67.0324Z" fill="white"/>
<path d="M84.451 79.7996H80.6176V104.499H84.451V79.7996Z" fill="white"/>
<path d="M86.3706 102.6H78.704C73.4199 102.6 69.1206 106.861 69.1206 112.1C69.1206 113.151 69.9773 114 71.0372 114H94.0372C95.0971 114 95.9538 113.151 95.9538 112.1C95.954 106.861 91.655 102.6 86.3706 102.6ZM73.2817 110.2C74.0732 107.988 76.2066 106.4 78.704 106.4H86.3706C88.8698 106.4 91.0014 107.988 91.7929 110.2H73.2817Z" fill="white"/>
<path d="M97.8647 62.7004H67.1981V66.5005H97.8647V62.7004Z" fill="white"/>
<path d="M40.366 26.6001H28.866V30.4002H40.366V26.6001Z" fill="white"/>
<path d="M44.2064 58.8999H25.0398C23.9819 58.8999 23.1232 59.7491 23.1232 60.7998V94.9998C23.1232 96.0505 23.9819 96.8998 25.0398 96.8998H44.2064C45.2643 96.8998 46.1229 96.0505 46.1229 94.9998V60.7998C46.1229 59.7493 45.2643 58.8999 44.2064 58.8999ZM42.2898 93.0999H26.9564V62.7H42.2898V93.0999Z" fill="white"/>
</svg>
